<?xml version="1.0" encoding="UTF-8" standalone="no"?>
<!-- Created with Inkscape (http://www.inkscape.org/) -->

<svg
   version="1.1"
   id="svg1"
   width="1986.6667"
   height="586.66669"
   viewBox="0 0 1986.6667 586.66669"
   sodipodi:docname="logo.svg"
   inkscape:version="1.4 (86a8ad7, 2024-10-11)"
   xmlns:inkscape="http://www.inkscape.org/namespaces/inkscape"
   xmlns:sodipodi="http://sodipodi.sourceforge.net/DTD/sodipodi-0.dtd"
   xmlns="http://www.w3.org/2000/svg"
   xmlns:svg="http://www.w3.org/2000/svg">
  <defs
     id="defs1">
    <clipPath
       clipPathUnits="userSpaceOnUse"
       id="clipPath2">
      <path
         d="M 0,1024 H 1024 V 0 H 0 Z"
         transform="translate(-143.42181,-649.88631)"
         id="path2" />
    </clipPath>
    <clipPath
       clipPathUnits="userSpaceOnUse"
       id="clipPath4">
      <path
         d="M 0,1024 H 1024 V 0 H 0 Z"
         transform="translate(-887.93545,-691.18622)"
         id="path4" />
    </clipPath>
    <clipPath
       clipPathUnits="userSpaceOnUse"
       id="clipPath6">
      <path
         d="M 0,1024 H 1024 V 0 H 0 Z"
         transform="translate(-722.76402,-714.78112)"
         id="path6" />
    </clipPath>
    <clipPath
       clipPathUnits="userSpaceOnUse"
       id="clipPath8">
      <path
         d="M 0,1024 H 1024 V 0 H 0 Z"
         transform="translate(0,-2.5000001e-5)"
         id="path8" />
    </clipPath>
    <clipPath
       clipPathUnits="userSpaceOnUse"
       id="clipPath10">
      <path
         d="M 0,1024 H 1024 V 0 H 0 Z"
         transform="translate(-848.3992,-621.77322)"
         id="path10" />
    </clipPath>
    <clipPath
       clipPathUnits="userSpaceOnUse"
       id="clipPath12">
      <path
         d="M 0,1024 H 1024 V 0 H 0 Z"
         transform="translate(0,-2.5000001e-5)"
         id="path12" />
    </clipPath>
    <clipPath
       clipPathUnits="userSpaceOnUse"
       id="clipPath14">
      <path
         d="M 0,1024 H 1024 V 0 H 0 Z"
         transform="translate(-411.63171,-628.84701)"
         id="path14" />
    </clipPath>
    <clipPath
       clipPathUnits="userSpaceOnUse"
       id="clipPath16">
      <path
         d="M 0,1024 H 1024 V 0 H 0 Z"
         transform="translate(-937.96172,-673.84062)"
         id="path16" />
    </clipPath>
    <clipPath
       clipPathUnits="userSpaceOnUse"
       id="clipPath18">
      <path
         d="M 0,1024 H 1024 V 0 H 0 Z"
         transform="translate(-642.12712,-712.92332)"
         id="path18" />
    </clipPath>
    <clipPath
       clipPathUnits="userSpaceOnUse"
       id="clipPath20">
      <path
         d="M 0,1024 H 1024 V 0 H 0 Z"
         transform="translate(-147.6202,-845.93292)"
         id="path20" />
    </clipPath>
    <clipPath
       clipPathUnits="userSpaceOnUse"
       id="clipPath22">
      <path
         d="M 0,1024 H 1024 V 0 H 0 Z"
         transform="translate(-875.2765,-684.15441)"
         id="path22" />
    </clipPath>
    <clipPath
       clipPathUnits="userSpaceOnUse"
       id="clipPath24">
      <path
         d="M 0,1024 H 1024 V 0 H 0 Z"
         transform="translate(-636.48782,-752.14502)"
         id="path24" />
    </clipPath>
    <clipPath
       clipPathUnits="userSpaceOnUse"
       id="clipPath26">
      <path
         d="M 0,1024 H 1024 V 0 H 0 Z"
         transform="translate(-671.44712,-675.13251)"
         id="path26" />
    </clipPath>
    <clipPath
       clipPathUnits="userSpaceOnUse"
       id="clipPath28">
      <path
         d="M 0,1024 H 1024 V 0 H 0 Z"
         transform="translate(-646.79642,-704.17322)"
         id="path28" />
    </clipPath>
    <clipPath
       clipPathUnits="userSpaceOnUse"
       id="clipPath30">
      <path
         d="M 0,1024 H 1024 V 0 H 0 Z"
         transform="translate(0,-2.5000001e-5)"
         id="path30" />
    </clipPath>
    <clipPath
       clipPathUnits="userSpaceOnUse"
       id="clipPath32">
      <path
         d="M 0,1024 H 1024 V 0 H 0 Z"
         transform="translate(-730.64602,-671.68572)"
         id="path32" />
    </clipPath>
    <clipPath
       clipPathUnits="userSpaceOnUse"
       id="clipPath34">
      <path
         d="M 0,1024 H 1024 V 0 H 0 Z"
         transform="translate(-675.21542,-684.49992)"
         id="path34" />
    </clipPath>
    <clipPath
       clipPathUnits="userSpaceOnUse"
       id="clipPath36">
      <path
         d="M 0,1024 H 1024 V 0 H 0 Z"
         transform="translate(-846.8491,-668.14202)"
         id="path36" />
    </clipPath>
    <clipPath
       clipPathUnits="userSpaceOnUse"
       id="clipPath38">
      <path
         d="M 0,1024 H 1024 V 0 H 0 Z"
         transform="translate(-675.57722,-696.67881)"
         id="path38" />
    </clipPath>
    <clipPath
       clipPathUnits="userSpaceOnUse"
       id="clipPath40">
      <path
         d="M 0,1024 H 1024 V 0 H 0 Z"
         transform="translate(0,-2.5000001e-5)"
         id="path40" />
    </clipPath>
    <clipPath
       clipPathUnits="userSpaceOnUse"
       id="clipPath42">
      <path
         d="M 0,1024 H 1024 V 0 H 0 Z"
         transform="translate(-700.12772,-688.24431)"
         id="path42" />
    </clipPath>
    <clipPath
       clipPathUnits="userSpaceOnUse"
       id="clipPath44">
      <path
         d="M 0,1024 H 1024 V 0 H 0 Z"
         transform="translate(-588.24412,-668.08562)"
         id="path44" />
    </clipPath>
    <clipPath
       clipPathUnits="userSpaceOnUse"
       id="clipPath46">
      <path
         d="M 0,1024 H 1024 V 0 H 0 Z"
         transform="translate(-848.20645,-700.74762)"
         id="path46" />
    </clipPath>
    <clipPath
       clipPathUnits="userSpaceOnUse"
       id="clipPath48">
      <path
         d="M 0,1024 H 1024 V 0 H 0 Z"
         transform="translate(-758.99769,-668.05872)"
         id="path48" />
    </clipPath>
    <clipPath
       clipPathUnits="userSpaceOnUse"
       id="clipPath50">
      <path
         d="M 0,1024 H 1024 V 0 H 0 Z"
         transform="translate(-676.07902,-668.32371)"
         id="path50" />
    </clipPath>
    <clipPath
       clipPathUnits="userSpaceOnUse"
       id="clipPath52">
      <path
         d="M 0,1024 H 1024 V 0 H 0 Z"
         transform="translate(-559.60211,-670.81011)"
         id="path52" />
    </clipPath>
    <clipPath
       clipPathUnits="userSpaceOnUse"
       id="clipPath54">
      <path
         d="M 0,1024 H 1024 V 0 H 0 Z"
         transform="translate(-705.39342,-677.96922)"
         id="path54" />
    </clipPath>
    <clipPath
       clipPathUnits="userSpaceOnUse"
       id="clipPath56">
      <path
         d="M 0,1024 H 1024 V 0 H 0 Z"
         transform="translate(-793.19739,-684.45072)"
         id="path56" />
    </clipPath>
    <clipPath
       clipPathUnits="userSpaceOnUse"
       id="clipPath58">
      <path
         d="M 0,1024 H 1024 V 0 H 0 Z"
         transform="translate(-764.19744,-668.25711)"
         id="path58" />
    </clipPath>
    <clipPath
       clipPathUnits="userSpaceOnUse"
       id="clipPath60">
      <path
         d="M 0,1024 H 1024 V 0 H 0 Z"
         transform="translate(-646.90262,-694.51122)"
         id="path60" />
    </clipPath>
    <clipPath
       clipPathUnits="userSpaceOnUse"
       id="clipPath62">
      <path
         d="M 0,1024 H 1024 V 0 H 0 Z"
         transform="translate(-730.02842,-688.08141)"
         id="path62" />
    </clipPath>
    <clipPath
       clipPathUnits="userSpaceOnUse"
       id="clipPath64">
      <path
         d="M 0,1024 H 1024 V 0 H 0 Z"
         transform="translate(-613.54982,-677.12022)"
         id="path64" />
    </clipPath>
    <clipPath
       clipPathUnits="userSpaceOnUse"
       id="clipPath66">
      <path
         d="M 0,1024 H 1024 V 0 H 0 Z"
         transform="translate(-670.99931,-684.33672)"
         id="path66" />
    </clipPath>
    <clipPath
       clipPathUnits="userSpaceOnUse"
       id="clipPath68">
      <path
         d="M 0,1024 H 1024 V 0 H 0 Z"
         transform="translate(-586.18921,-702.63172)"
         id="path68" />
    </clipPath>
    <clipPath
       clipPathUnits="userSpaceOnUse"
       id="clipPath70">
      <path
         d="M 0,1024 H 1024 V 0 H 0 Z"
         transform="translate(-759.62349,-703.32882)"
         id="path70" />
    </clipPath>
    <clipPath
       clipPathUnits="userSpaceOnUse"
       id="clipPath72">
      <path
         d="M 0,1024 H 1024 V 0 H 0 Z"
         transform="translate(-706.00872,-702.84062)"
         id="path72" />
    </clipPath>
    <clipPath
       clipPathUnits="userSpaceOnUse"
       id="clipPath74">
      <path
         d="M 0,1024 H 1024 V 0 H 0 Z"
         transform="translate(-793.68212,-702.83232)"
         id="path74" />
    </clipPath>
    <clipPath
       clipPathUnits="userSpaceOnUse"
       id="clipPath76">
      <path
         d="M 0,1024 H 1024 V 0 H 0 Z"
         transform="translate(-851.82145,-702.55572)"
         id="path76" />
    </clipPath>
    <clipPath
       clipPathUnits="userSpaceOnUse"
       id="clipPath78">
      <path
         d="M 0,1024 H 1024 V 0 H 0 Z"
         transform="translate(-587.88901,-702.55792)"
         id="path78" />
    </clipPath>
    <clipPath
       clipPathUnits="userSpaceOnUse"
       id="clipPath80">
      <path
         d="M 0,1024 H 1024 V 0 H 0 Z"
         transform="translate(-823.1299,-684.43041)"
         id="path80" />
    </clipPath>
    <clipPath
       clipPathUnits="userSpaceOnUse"
       id="clipPath82">
      <path
         d="M 0,1024 H 1024 V 0 H 0 Z"
         transform="translate(-735.41542,-678.26262)"
         id="path82" />
    </clipPath>
    <clipPath
       clipPathUnits="userSpaceOnUse"
       id="clipPath84">
      <path
         d="M 0,1024 H 1024 V 0 H 0 Z"
         transform="translate(-847.08542,-688.08132)"
         id="path84" />
    </clipPath>
    <clipPath
       clipPathUnits="userSpaceOnUse"
       id="clipPath86">
      <path
         d="M 0,1024 H 1024 V 0 H 0 Z"
         transform="translate(-787.82169,-684.00482)"
         id="path86" />
    </clipPath>
    <clipPath
       clipPathUnits="userSpaceOnUse"
       id="clipPath88">
      <path
         d="M 0,1024 H 1024 V 0 H 0 Z"
         transform="translate(-758.92824,-688.06602)"
         id="path88" />
    </clipPath>
    <clipPath
       clipPathUnits="userSpaceOnUse"
       id="clipPath90">
      <path
         d="M 0,1024 H 1024 V 0 H 0 Z"
         transform="translate(-764.63934,-702.65922)"
         id="path90" />
    </clipPath>
    <clipPath
       clipPathUnits="userSpaceOnUse"
       id="clipPath92">
      <path
         d="M 0,1024 H 1024 V 0 H 0 Z"
         transform="translate(-817.53865,-688.06322)"
         id="path92" />
    </clipPath>
    <clipPath
       clipPathUnits="userSpaceOnUse"
       id="clipPath94">
      <path
         d="M 0,1024 H 1024 V 0 H 0 Z"
         transform="translate(-560.13101,-678.26222)"
         id="path94" />
    </clipPath>
    <clipPath
       clipPathUnits="userSpaceOnUse"
       id="clipPath96">
      <path
         d="M 0,1024 H 1024 V 0 H 0 Z"
         transform="translate(-850.49005,-689.96871)"
         id="path96" />
    </clipPath>
    <clipPath
       clipPathUnits="userSpaceOnUse"
       id="clipPath98">
      <path
         d="M 0,1024 H 1024 V 0 H 0 Z"
         transform="translate(-763.74069,-690.87012)"
         id="path98" />
    </clipPath>
    <clipPath
       clipPathUnits="userSpaceOnUse"
       id="clipPath100">
      <path
         d="M 0,1024 H 1024 V 0 H 0 Z"
         transform="translate(-584.58271,-687.99072)"
         id="path100" />
    </clipPath>
    <clipPath
       clipPathUnits="userSpaceOnUse"
       id="clipPath102">
      <path
         d="M 0,1024 H 1024 V 0 H 0 Z"
         transform="translate(-671.83691,-710.91642)"
         id="path102" />
    </clipPath>
    <clipPath
       clipPathUnits="userSpaceOnUse"
       id="clipPath104">
      <path
         d="M 0,1024 H 1024 V 0 H 0 Z"
         transform="translate(-560.00512,-711.27722)"
         id="path104" />
    </clipPath>
    <clipPath
       clipPathUnits="userSpaceOnUse"
       id="clipPath106">
      <path
         d="M 0,1024 H 1024 V 0 H 0 Z"
         transform="translate(-847.51052,-708.36962)"
         id="path106" />
    </clipPath>
    <clipPath
       clipPathUnits="userSpaceOnUse"
       id="clipPath108">
      <path
         d="M 0,1024 H 1024 V 0 H 0 Z"
         transform="translate(-851.40415,-705.98052)"
         id="path108" />
    </clipPath>
    <clipPath
       clipPathUnits="userSpaceOnUse"
       id="clipPath110">
      <path
         d="M 0,1024 H 1024 V 0 H 0 Z"
         transform="translate(-701.31702,-708.89982)"
         id="path110" />
    </clipPath>
    <clipPath
       clipPathUnits="userSpaceOnUse"
       id="clipPath112">
      <path
         d="M 0,1024 H 1024 V 0 H 0 Z"
         transform="translate(-588.13711,-687.87012)"
         id="path112" />
    </clipPath>
    <clipPath
       clipPathUnits="userSpaceOnUse"
       id="clipPath114">
      <path
         d="M 0,1024 H 1024 V 0 H 0 Z"
         transform="translate(-818.22242,-709.25452)"
         id="path114" />
    </clipPath>
    <clipPath
       clipPathUnits="userSpaceOnUse"
       id="clipPath116">
      <path
         d="M 0,1024 H 1024 V 0 H 0 Z"
         transform="translate(-601.28392,-711.47672)"
         id="path116" />
    </clipPath>
    <clipPath
       clipPathUnits="userSpaceOnUse"
       id="clipPath118">
      <path
         d="M 0,1024 H 1024 V 0 H 0 Z"
         transform="translate(-735.25432,-707.15262)"
         id="path118" />
    </clipPath>
    <clipPath
       clipPathUnits="userSpaceOnUse"
       id="clipPath120">
      <path
         d="M 0,1024 H 1024 V 0 H 0 Z"
         transform="translate(-763.34034,-711.25732)"
         id="path120" />
    </clipPath>
    <clipPath
       clipPathUnits="userSpaceOnUse"
       id="clipPath122">
      <path
         d="M 0,1024 H 1024 V 0 H 0 Z"
         transform="translate(-705.16602,-710.78342)"
         id="path122" />
    </clipPath>
    <clipPath
       clipPathUnits="userSpaceOnUse"
       id="clipPath124">
      <path
         d="M 0,1024 H 1024 V 0 H 0 Z"
         transform="translate(-555.48412,-669.80991)"
         id="path124" />
    </clipPath>
    <clipPath
       clipPathUnits="userSpaceOnUse"
       id="clipPath126">
      <path
         d="M 0,1024 H 1024 V 0 H 0 Z"
         transform="translate(-894.26222,-679.63761)"
         id="path126" />
    </clipPath>
    <clipPath
       clipPathUnits="userSpaceOnUse"
       id="clipPath128">
      <path
         d="M 0,1024 H 1024 V 0 H 0 Z"
         transform="translate(-887.73865,-691.31852)"
         id="path128" />
    </clipPath>
    <clipPath
       clipPathUnits="userSpaceOnUse"
       id="clipPath130">
      <path
         d="M 0,1024 H 1024 V 0 H 0 Z"
         transform="translate(-268.6342,-877.12842)"
         id="path130" />
    </clipPath>
    <clipPath
       clipPathUnits="userSpaceOnUse"
       id="clipPath132">
      <path
         d="M 0,1024 H 1024 V 0 H 0 Z"
         transform="translate(-420.67551,-531.74771)"
         id="path132" />
    </clipPath>
    <clipPath
       clipPathUnits="userSpaceOnUse"
       id="clipPath134">
      <path
         d="M 0,1024 H 1024 V 0 H 0 Z"
         transform="translate(-176.9571,-857.89562)"
         id="path134" />
    </clipPath>
    <clipPath
       clipPathUnits="userSpaceOnUse"
       id="clipPath136">
      <path
         d="M 0,1024 H 1024 V 0 H 0 Z"
         transform="translate(-143.42181,-649.88631)"
         id="path136" />
    </clipPath>
  </defs>
  <sodipodi:namedview
     id="namedview1"
     pagecolor="#ffffff"
     bordercolor="#000000"
     borderopacity="0.25"
     inkscape:showpageshadow="2"
     inkscape:pageopacity="0.0"
     inkscape:pagecheckerboard="0"
     inkscape:deskcolor="#d1d1d1"
     inkscape:zoom="0.15571772"
     inkscape:cx="-1046.7659"
     inkscape:cy="317.8829"
     inkscape:window-width="1920"
     inkscape:window-height="1009"
     inkscape:window-x="-8"
     inkscape:window-y="-8"
     inkscape:window-maximized="1"
     inkscape:current-layer="g1" />
  <g
     inkscape:groupmode="layer"
     inkscape:label="Image"
     id="g1">
    <g
       id="g3"
       transform="translate(-18.054692,2)">
      <g
         id="g2">
        <path
           id="path1"
           d="M 0,0 H 15.782 C 10.054,8.781 5.436,4.605 0,0 m 190.354,153.821 c 3.64,-1.103 6.825,-2.069 10.924,-3.313 -1.986,4.946 -3.364,8.378 -5.117,12.743 -2.083,-3.383 -3.661,-5.945 -5.807,-9.43 M 33.535,208.009 c -0.334,0.466 -0.669,0.932 -1.003,1.397 2.627,2.861 5.255,5.721 7.882,8.581 -4.887,-1.242 -8.763,-3.974 -12.249,-7.137 -0.435,-0.395 1.105,-4.404 1.883,-4.456 3.634,-0.244 7.321,0.313 10.989,0.583 -0.226,0.954 -0.452,1.908 -0.678,2.861 -2.275,-0.609 -4.549,-1.219 -6.824,-1.829 M 60.603,96.427 c 6.404,0 10.217,-0.251 13.97,0.113 1.701,0.165 3.559,1.268 4.809,2.494 0.652,0.639 0.586,2.7 0.063,3.715 -1.438,2.787 -3.289,5.361 -5.628,9.045 -3.721,-4.326 -8.239,-9.581 -13.214,-15.367 m 64.609,130.815 c 0.094,0.372 0.187,0.743 0.28,1.115 -8.059,0 -16.162,0.526 -24.166,-0.144 -8.492,-0.711 -17.084,-1.879 -25.242,-4.213 -3.716,-1.064 -6.494,-5.41 -9.968,-8.509 2.546,-1.443 4.319,-2.448 6.091,-3.453 -0.081,-0.493 -0.163,-0.985 -0.244,-1.478 H 57.966 c -0.053,-0.879 -0.106,-1.757 -0.158,-2.636 1.96,-0.527 3.891,-1.256 5.886,-1.547 8.311,-1.21 14.905,2.728 22.19,6.163 12.615,5.949 26.169,9.908 39.328,14.702 m 152.042,-345.381 c -11.268,-11.817 -21.29,-25.232 -34.029,-35.162 -44.019,-34.315 -94.585,-49.262 -150.267,-45.65 -13.223,0.857 -26.279,4.285 -40.386,6.697 1.293,2.983 2.056,4.742 2.985,6.884 -0.96,0.448 -1.858,1.077 -2.846,1.293 -5.821,1.273 -4.765,5.056 -3.268,8.917 1.175,3.029 2.539,5.985 4.427,10.395 7.608,-0.094 3.356,7.774 4.95,13.498 6.609,0.443 10.936,3.76 10.282,11.456 -0.072,0.846 0.385,2.277 1.001,2.562 8.955,4.133 8.761,11.722 7.423,20.637 14.08,2.031 19.864,10.859 19.713,24.725 -0.027,2.544 3.033,5.133 4.698,7.682 7.112,10.894 4.676,17.158 -7.433,21.075 -6.704,2.168 -12.95,5.719 -19.535,8.309 -2.595,1.021 -5.55,1.126 -8.642,1.704 1.161,10.455 -3.172,15.716 -14.973,17.196 -2.285,0.286 -4.735,1.266 -6.587,2.633 -6.198,4.577 -11.786,10.115 -18.38,13.958 -2.972,1.731 -7.911,0.987 -11.706,0.182 -4.975,-1.055 -9.793,-3.064 -14.512,-5.058 -5.958,-2.518 -7.429,-7.214 -6.206,-13.401 0.366,-1.849 -0.677,-4.31 -1.766,-6.061 -6.624,-10.655 -4.744,-16.244 1.363,-26.811 6.339,-10.969 14.835,-18.95 23.852,-27.196 3.374,-3.086 4.317,-9.365 5.298,-14.396 1.28,-6.562 0.937,-13.446 2.275,-19.991 3.72,-18.191 7.948,-36.279 11.789,-53.571 -92.245,32.313 -144.598,139.485 -133.247,217.194 3.206,-6.968 6.291,-13.671 9.376,-20.375 0.784,0.268 1.568,0.536 2.352,0.804 -1.338,7.495 -2.676,14.99 -4.013,22.486 0.494,0.418 0.989,0.836 1.484,1.254 3.319,-5.007 8.4,-9.63 9.595,-15.101 2.582,-11.824 10.033,-18.959 19.249,-25.203 0.912,-0.618 1.87,-1.686 2.8,-1.679 8.549,0.063 15.332,-4.02 22.85,-7.449 5.238,-2.389 8.2,-5.354 11.395,-9.204 6.372,-7.678 9.654,-7.939 15.411,-1.375 -10.4,2.748 -10.4,2.748 -11.934,15.083 -10.078,1.96 -10.078,1.96 -9.803,20.081 -3.568,-2.167 -6.087,-3.793 -8.697,-5.256 -2.856,-1.601 -5.915,-4.427 -8.666,-4.188 -2.867,0.249 -6.597,2.926 -7.989,5.572 -5.107,9.706 -0.697,23.526 8.572,27.348 2.618,1.079 6.106,0.033 9.195,-0.012 1.917,-0.028 4.185,-0.682 5.693,0.102 8.465,4.404 14.384,1.939 17.064,-7.054 1.045,-3.508 3.054,-6.729 5.128,-11.156 1.564,2.341 2.192,2.881 2.094,3.19 -5.961,18.683 -5.832,18.518 9.558,31.183 3.091,2.544 4.68,6.887 7.047,10.342 2.005,2.928 3.803,6.099 6.274,8.585 5.129,5.161 10.492,10.12 16.074,14.786 2.275,1.902 3.718,6.929 9.027,1.392 1.871,-1.95 11.411,3.455 17.45,5.501 -0.277,1.059 -0.554,2.118 -0.83,3.177 -4.197,-0.798 -8.393,-1.596 -13.792,-2.623 1.847,4.36 3.175,7.494 5.224,12.33 -5.295,-1.275 -9.121,-2.196 -12.789,-3.079 4.947,7.229 11.005,8.802 18.275,4.83 6.915,3.847 13.662,7.6 19.531,10.865 -3.74,8.954 -7.23,17.31 -10.439,24.994 -0.501,-1.16 -1.615,-3.741 -2.456,-5.689 -4.513,6.601 -8.131,13.073 -13.022,18.37 -1.596,1.729 -7.954,1.846 -9.629,0.18 -4.655,-4.627 -8.76,-10.17 -7.175,-17.855 0.281,-1.363 -1.716,-4.069 -3.288,-4.79 -7.002,-3.213 -13.077,-6.771 -13.705,-15.678 -0.124,-1.755 -2.571,-3.346 -4.555,-5.75 -0.865,6.362 -1.586,11.663 -2.262,16.635 -7.317,4.484 -14.66,8.984 -22.749,13.941 11.736,14.722 27.31,21.66 42.099,29.727 0.555,-0.614 1.11,-1.227 1.665,-1.84 -2.665,-1.441 -5.33,-2.882 -7.995,-4.323 0.443,-0.526 0.886,-1.052 1.329,-1.578 h 15.845 c -7.995,4.441 -8.281,7.478 -1.715,11.379 3.891,2.311 6.744,6.497 9.783,10.078 3.672,4.327 9.796,4.535 14.298,0.355 1.171,-1.088 2.78,-1.704 6.138,-3.689 -4.901,-4.644 -9.175,-8.695 -14.476,-13.718 1.436,-3.707 3.745,-9.665 5.936,-15.319 6.305,2.585 10.662,4.617 15.183,6.174 8.941,3.079 0.177,8.073 1.3,13.327 4.449,-7.382 8.613,-6.209 15.398,1.475 -2.777,1.472 -5.703,2.652 -8.156,4.469 -1.377,1.021 -2.538,3.01 -2.801,4.716 -0.536,3.483 1.027,8.735 -0.805,10.303 -5.62,4.81 -10.764,11.128 -19.812,10.249 -7.26,-0.706 -15.185,1.898 -20.637,-5.389 -0.594,-0.793 -0.804,-1.874 -2.038,-4.89 5.021,2.119 8.306,3.506 13.208,5.575 -5.969,-7.515 -10.856,-13.665 -16.129,-20.302 -6.119,12.733 -6.119,12.733 1.73,23.717 -0.554,0.537 -1.108,1.073 -1.662,1.609 -2.743,-2.835 -6.005,-5.337 -8.091,-8.592 -2.342,-3.654 -3.621,-7.989 -5.363,-12.027 -0.822,0.208 -1.645,0.417 -2.467,0.625 0.307,5.755 0.614,11.51 0.954,17.882 -3.474,-0.58 -6.65,-1.109 -9.826,-1.639 0.434,1.065 0.869,2.129 1.65,4.045 -6.31,-0.83 -11.595,-1.526 -16.88,-2.221 l 0.292,-0.234 c 11.4,12.409 26.16,19.475 41.565,25.007 34.398,12.352 70.195,15.692 106.366,13.367 18.222,-1.171 35.879,-6.4 53.885,-15.558 -11.227,-0.799 -21.086,-3.318 -30.265,-1.779 -19.964,3.347 -38.249,-2.893 -56.953,-7.118 -3.906,-0.883 -7.622,-3.268 -10.962,-5.619 -1.147,-0.808 -1.344,-5.247 -1.188,-5.292 4.848,-1.394 6.66,-8.241 13.534,-6.606 4.554,1.083 12.074,3.165 10.558,-6.941 -0.089,-0.589 2.999,-1.655 4.538,-2.462 -0.344,-5.385 -5.695,-9.389 -3.15,-15.301 0.433,-1.006 -1.345,-3.765 -2.762,-4.622 -5.372,-3.251 -5.018,-7.088 -2.519,-12.033 1.671,-3.305 1.822,-7.394 3.566,-10.642 1.946,-3.622 4.797,-9.264 7.485,-9.398 4.084,-0.204 9.982,2.515 12.22,5.901 4.281,6.478 11.516,8.693 16.182,13.484 10.551,10.834 23.681,8.011 35.932,10.136 2.2,0.382 4.484,0.264 6.693,0.608 13.516,2.106 13.657,2.337 13.9,16.036 0.132,7.471 3.085,11.934 11.497,11.892 6.934,-0.035 13.875,1.356 20.811,1.331 2.404,-0.009 5.124,-1.991 7.148,-3.719 21.295,-18.173 38.587,-39.582 51.494,-64.47 0.475,-0.916 0.657,-1.983 1.585,-4.885 -45.79,0 -90.61,-0.772 -135.39,0.216 -44.984,0.993 -80.858,-32.667 -90.96,-69.495 -16.155,-58.895 32.223,-102.7 75.667,-101.11 8.364,0.306 16.719,0.982 25.064,1.668 6.012,0.495 11.101,-3.382 10.901,-9.54 -0.194,-5.946 1.496,-10.427 5.198,-15.242 4.814,-6.263 7.061,-13.8 3.458,-22.005 -1.183,-2.694 -2.226,-6.289 -1.42,-8.875 4.033,-12.924 8.823,-25.61 13.1,-38.462 2.365,-7.107 6.758,-8.657 12.726,-4.815 8.145,5.243 18.702,8.32 19.799,20.573 0.096,1.074 2.753,1.712 3.633,2.965 1.648,2.348 4.536,5.494 3.961,7.434 -1.993,6.717 1.718,9.466 6.595,11.525 7.528,3.178 8.843,8.735 6.57,15.744 -3.639,11.22 -2.761,20.067 8.979,26.874 9.139,5.299 16.077,13.626 17.779,26.312 -12.267,-3.271 -19.608,1.643 -23.017,12.857 l -0.215,-0.097 c 6.481,-8.507 14.966,-6.466 23.882,-5.41 9.031,1.069 18.287,0.236 28.088,0.236 -5.354,-31.613 -18.04,-59.023 -36.027,-84.159 -2.047,-2.86 -4.646,-5.325 -6.995,-7.98 2.128,9.991 9.237,18.927 7.473,30.193 -12.459,-8.526 -16.597,-19.715 -15.531,-35.173 3.918,2.477 6.144,3.884 8.369,5.29"
           style="fill:#1d3743;fill-opacity:1;fill-rule:nonzero;stroke:none"
           transform="matrix(1.3333333,0,0,-1.3333333,155.41828,319.73276)"
           clip-path="url(#clipPath2)" />
        <path
           id="path3"
           d="M 0,0 C -0.638,4.656 -1.276,9.312 -1.918,13.997 -8.473,14.792 -8.473,14.792 -9.523,1.32 v 20.906 h -129.671 c 2.843,5.259 4.621,8.919 6.724,12.381 32.003,52.69 64.1,105.322 96.003,158.071 3.217,5.318 6.786,7.609 13.334,7.543 36.415,-0.37 72.836,-0.178 109.935,-0.178 V -60.434 c -19.032,0 -38.007,-0.366 -56.954,0.182 -7.463,0.216 -10.294,7.168 -5.702,13.3 3.474,4.64 8.159,8.37 12.28,12.53 6.179,6.24 12.335,12.503 18.501,18.755 l -1.28,2.736 H 16.299 C 13.213,1.904 13.213,1.904 -0.197,0.132 Z"
           style="fill:#1d3743;fill-opacity:1;fill-rule:nonzero;stroke:none"
           transform="matrix(1.3333333,0,0,-1.3333333,1148.1031,264.66626)"
           clip-path="url(#clipPath4)" />
        <path
           id="path5"
           d="m 0,0 h -72.663 c 2.974,7.317 5.401,13.289 7.828,19.261 -0.686,0.294 -1.373,0.588 -2.059,0.882 -2.128,-4.627 -3.776,-9.573 -6.565,-13.759 -1.642,-2.463 -4.884,-4.365 -7.799,-5.32 -2.485,-0.815 -5.602,0.547 -8.319,0.141 -11.586,-1.734 -19.399,1.513 -20.151,15.909 h 38.871 c 0.025,0.949 0.051,1.899 0.076,2.849 -3.803,0.201 -7.607,0.401 -12.609,0.665 v 36.026 h -17.501 V 20.889 h -13.762 c 2.325,-7.156 4.434,-13.645 6.835,-21.034 h -58.033 v -35.996 h -24.759 c -0.368,-4.078 -0.706,-7.835 -1.095,-12.15 -3.922,-0.272 -7.932,-0.551 -13.55,-0.942 7.73,-11.846 14.805,-22.688 22.433,-34.378 h -46.503 v 259.448 c 1.895,0.209 4.023,0.644 6.151,0.646 36.428,0.034 72.856,0.115 109.282,-0.184 2.945,-0.024 7.148,-1.95 8.614,-4.322 C -70.349,115.487 -35.715,58.815 -1.038,2.17 -0.628,1.502 -0.354,0.749 0,0"
           style="fill:#1d3743;fill-opacity:1;fill-rule:nonzero;stroke:none"
           transform="matrix(1.3333333,0,0,-1.3333333,927.87448,233.20636)"
           clip-path="url(#clipPath6)" />
        <path
           id="path7"
           d="M 493.426,621.899 H 614.155 V 454.283 H 493.426 Z"
           style="fill:#1d3743;fill-opacity:1;fill-rule:nonzero;stroke:none"
           transform="matrix(1.3333333,0,0,-1.3333333,-35.810819,1186.2478)"
           clip-path="url(#clipPath8)" />
        <path
           id="path9"
           d="M 0,0 C -37.361,-57.483 -73.987,-113.835 -111.566,-171.653 -150.445,-113.147 -187.814,-56.913 -225.635,0 Z"
           style="fill:#1d3743;fill-opacity:1;fill-rule:nonzero;stroke:none"
           transform="matrix(1.3333333,0,0,-1.3333333,1095.3881,357.21686)"
           clip-path="url(#clipPath10)" />
        <path
           id="path11"
           d="M 856.852,621.901 H 974.369 V 454.428 H 856.852 Z"
           style="fill:#1d3743;fill-opacity:1;fill-rule:nonzero;stroke:none"
           transform="matrix(1.3333333,0,0,-1.3333333,-35.810819,1186.2478)"
           clip-path="url(#clipPath12)" />
        <path
           id="path13"
           d="m 0,0 c -3.171,0.635 -6.341,1.815 -9.514,1.824 -45.121,0.124 -90.243,0.09 -135.365,0.094 -2.739,0.001 -5.479,0 -8.807,0 V 66.993 H 58.062 C 57.015,45.606 55.971,24.303 54.897,2.38 42.161,2.38 30.764,2.662 19.391,2.272 12.844,2.047 6.335,0.735 -0.203,-0.093 -0.214,-0.097 0,0 0,0"
           style="fill:#1d3743;fill-opacity:1;fill-rule:nonzero;stroke:none"
           transform="matrix(1.3333333,0,0,-1.3333333,513.03148,347.78516)"
           clip-path="url(#clipPath14)" />
        <path
           id="path15"
           d="m 0,0 c -5.629,-5.169 -11.313,-10.28 -16.87,-15.525 -4.255,-4.015 -9.151,-7.678 -12.269,-12.469 -2.546,-3.911 -2.886,-9.258 -4.533,-15.148 h -5.162 c -114.876,-0.002 -229.752,0.041 -344.627,-0.133 -5.953,-0.009 -9.872,1.578 -13.141,6.627 -5.126,7.915 -10.91,15.404 -17.578,24.693 12.456,0 23.496,0.021 34.537,-0.003 86.57,-0.192 173.14,-0.629 259.709,-0.413 19.804,0.05 39.923,0.904 57.283,12.919 1.083,0.75 2.586,1.256 3.897,1.262 19.205,0.08 38.411,0.055 57.617,0.055 C -0.758,1.243 -0.379,0.622 0,0"
           style="fill:#1d3743;fill-opacity:1;fill-rule:nonzero;stroke:none"
           transform="matrix(1.3333333,0,0,-1.3333333,1214.8048,287.79366)"
           clip-path="url(#clipPath16)" />
        <path
           id="path17"
           d="m 0,0 v -37.896 c -7.385,-5.264 -14.263,-10.535 -24.149,-6.189 V 0 Z"
           style="fill:#1d3743;fill-opacity:1;fill-rule:nonzero;stroke:none"
           transform="matrix(1.3333333,0,0,-1.3333333,820.35868,235.68346)"
           clip-path="url(#clipPath18)" />
        <path
           id="path19"
           d="m 0,0 c -1.495,-1.101 -2.99,-2.202 -5.339,-3.933 2.331,-0.796 3.943,-1.345 5.8,-1.979 -0.775,-1.611 -1.537,-3.196 -2.899,-6.028 4.647,0.266 8.242,0.472 12.148,0.696 -4.386,-5.156 -21.78,-6.38 -40.238,-2.555 7.561,6.846 14.149,12.809 20.736,18.772 0,0.001 -0.291,0.234 -0.291,0.234 C -10.897,-4.613 -3.078,2.284 0,0"
           style="fill:#1d3743;fill-opacity:1;fill-rule:nonzero;stroke:none"
           transform="matrix(1.3333333,0,0,-1.3333333,161.01608,58.337255)"
           clip-path="url(#clipPath20)" />
        <path
           id="path21"
           d="M 0,0 C -0.796,-8.785 -6.478,-12.152 -23.618,-14.245 V 0 Z"
           style="fill:#1d3743;fill-opacity:1;fill-rule:nonzero;stroke:none"
           transform="matrix(1.3333333,0,0,-1.3333333,1131.2245,274.04196)"
           clip-path="url(#clipPath22)" />
        <path
           id="path23"
           d="M 0,0 C -4.049,0.187 -7.565,0.349 -11.701,0.54 V 16.203 C 0.103,19.981 0.856,19.044 0,0"
           style="fill:#1d3743;fill-opacity:1;fill-rule:nonzero;stroke:none"
           transform="matrix(1.3333333,0,0,-1.3333333,812.83958,183.38786)"
           clip-path="url(#clipPath24)" />
        <path
           id="path25"
           d="M 0,0 C 0.179,-2.403 0.335,-4.492 0.519,-6.959 H -25.086 V 0 Z"
           style="fill:#1d3743;fill-opacity:1;fill-rule:nonzero;stroke:none"
           transform="matrix(1.3333333,0,0,-1.3333333,859.45198,286.07116)"
           clip-path="url(#clipPath26)" />
        <path
           id="path27"
           d="M 0,0 H 23.191 C 25.756,-5.296 24.487,-7.791 18.434,-7.519 13.987,-7.32 9.502,-7.13 5.079,-7.49 -0.706,-7.962 -1.663,-5.357 0,0"
           style="fill:#1d3743;fill-opacity:1;fill-rule:nonzero;stroke:none"
           transform="matrix(1.3333333,0,0,-1.3333333,826.58438,247.35026)"
           clip-path="url(#clipPath28)" />
        <path
           id="path29"
           d="m 624.094,749.724 h 12.532 v -14.445 h -12.532 z"
           style="fill:#1d3743;fill-opacity:1;fill-rule:nonzero;stroke:none"
           transform="matrix(1.3333333,0,0,-1.3333333,-35.810819,1186.2478)"
           clip-path="url(#clipPath30)" />
        <path
           id="path31"
           d="m 0,0 c -6.583,-8.28 -16.718,-1.315 -25.265,-4.454 v 7.657 h 24.3 C -0.643,2.135 -0.322,1.068 0,0"
           style="fill:#1d3743;fill-opacity:1;fill-rule:nonzero;stroke:none"
           transform="matrix(1.3333333,0,0,-1.3333333,938.38388,290.66686)"
           clip-path="url(#clipPath32)" />
        <path
           id="path33"
           d="M 0,0 H 26.622 C 24.735,-2.785 23.769,-5.94 22.148,-6.324 10.983,-8.97 0.865,-6.174 0,0"
           style="fill:#1d3743;fill-opacity:1;fill-rule:nonzero;stroke:none"
           transform="matrix(1.3333333,0,0,-1.3333333,864.47638,273.58126)"
           clip-path="url(#clipPath34)" />
        <path
           id="path35"
           d="m 0,0 h -24.535 c 0.112,2.468 0.208,4.565 0.311,6.828 7.178,0 13.847,0.339 20.441,-0.215 C -1.896,6.454 -0.227,3.707 1.541,2.147 1.027,1.431 0.514,0.716 0,0"
           style="fill:#1d3743;fill-opacity:1;fill-rule:nonzero;stroke:none"
           transform="matrix(1.3333333,0,0,-1.3333333,1093.3213,295.39186)"
           clip-path="url(#clipPath36)" />
        <path
           id="path37"
           d="M 0,0 C 0.122,7.414 0.422,7.505 19.417,6.54 24.458,6.283 24.458,6.283 23.8,0 Z"
           style="fill:#1d3743;fill-opacity:1;fill-rule:nonzero;stroke:none"
           transform="matrix(1.3333333,0,0,-1.3333333,864.95878,257.34276)"
           clip-path="url(#clipPath38)" />
        <path
           id="path39"
           d="m 817.869,668.039 h -24.566 v 6.836 h 24.566 z"
           style="fill:#1d3743;fill-opacity:1;fill-rule:nonzero;stroke:none"
           transform="matrix(1.3333333,0,0,-1.3333333,-35.810819,1186.2478)"
           clip-path="url(#clipPath40)" />
        <path
           id="path41"
           d="m 0,0 h -24.197 c -0.551,0.568 -1.103,1.137 -1.655,1.705 1.615,1.301 3.125,3.563 4.861,3.752 C -4.224,7.284 -0.549,6.262 0,0"
           style="fill:#1d3743;fill-opacity:1;fill-rule:nonzero;stroke:none"
           transform="matrix(1.3333333,0,0,-1.3333333,897.69278,268.58876)"
           clip-path="url(#clipPath42)" />
        <path
           id="path43"
           d="m 0,0 v 6.303 c 8.095,0 16.049,0.133 23.98,-0.241 C 24.645,6.031 25.149,2.591 25.956,0 Z"
           style="fill:#1d3743;fill-opacity:1;fill-rule:nonzero;stroke:none"
           transform="matrix(1.3333333,0,0,-1.3333333,748.51468,295.46706)"
           clip-path="url(#clipPath44)" />
        <path
           id="path45"
           d="m 0,0 c -1.532,-1.412 -2.975,-3.908 -4.611,-4.042 -6.058,-0.494 -12.19,-0.4 -18.268,-0.063 -1.267,0.07 -2.424,2.121 -3.632,3.26 1.299,1.019 2.563,2.862 3.903,2.92 6.887,0.299 13.794,0.139 20.694,0.139 C -1.276,1.476 -0.638,0.738 0,0"
           style="fill:#1d3743;fill-opacity:1;fill-rule:nonzero;stroke:none"
           transform="matrix(1.3333333,0,0,-1.3333333,1095.1311,251.91766)"
           clip-path="url(#clipPath46)" />
        <path
           id="path47"
           d="m 0,0 h -26.081 c 2.808,3.255 4.861,6.836 5.829,6.563 C -13.361,4.624 -4.115,10.559 1.003,2.625 0.668,1.75 0.334,0.875 0,0"
           style="fill:#1d3743;fill-opacity:1;fill-rule:nonzero;stroke:none"
           transform="matrix(1.3333333,0,0,-1.3333333,976.18608,295.50286)"
           clip-path="url(#clipPath48)" />
        <path
           id="path49"
           d="M 0,0 C 0.459,7.574 0.459,7.574 23.827,6.124 24.241,-1.649 23.368,-1.878 0,0"
           style="fill:#1d3743;fill-opacity:1;fill-rule:nonzero;stroke:none"
           transform="matrix(1.3333333,0,0,-1.3333333,865.62788,295.14956)"
           clip-path="url(#clipPath50)" />
        <path
           id="path51"
           d="M 0,0 C 5.894,9.135 16.375,0.385 24.428,5.299 24.601,1.756 24.709,-0.44 24.833,-2.97 H 1.163 C 0.776,-1.98 0.388,-0.99 0,0"
           style="fill:#1d3743;fill-opacity:1;fill-rule:nonzero;stroke:none"
           transform="matrix(1.3333333,0,0,-1.3333333,710.32528,291.83436)"
           clip-path="url(#clipPath52)" />
        <path
           id="path53"
           d="m 0,0 c -0.11,2.513 -0.198,4.506 -0.298,6.791 7.174,0 13.772,0.2 20.34,-0.146 1.57,-0.082 3.044,-1.984 4.562,-3.05 C 22.918,2.397 21.293,0.282 19.535,0.165 13.22,-0.255 6.86,0 0,0"
           style="fill:#1d3743;fill-opacity:1;fill-rule:nonzero;stroke:none"
           transform="matrix(1.3333333,0,0,-1.3333333,904.71368,282.28886)"
           clip-path="url(#clipPath54)" />
        <path
           id="path55"
           d="M 0,0 H 24.016 C 25.883,-4.837 24.882,-6.641 19.494,-6.731 0.067,-7.055 0.07,-7.242 0,0"
           style="fill:#1d3743;fill-opacity:1;fill-rule:nonzero;stroke:none"
           transform="matrix(1.3333333,0,0,-1.3333333,1021.7857,273.64686)"
           clip-path="url(#clipPath56)" />
        <path
           id="path57"
           d="M 0,0 C -0.328,8.454 -4.001,6.469 24.026,6.607 24.245,4.594 24.469,2.523 24.743,0 Z"
           style="fill:#1d3743;fill-opacity:1;fill-rule:nonzero;stroke:none"
           transform="matrix(1.3333333,0,0,-1.3333333,983.11908,295.23836)"
           clip-path="url(#clipPath58)" />
        <path
           id="path59"
           d="M 0,0 C 8.039,-2.644 17.632,3.704 26.369,-5.319 7.984,-8.583 -0.056,-7.023 0,0"
           style="fill:#1d3743;fill-opacity:1;fill-rule:nonzero;stroke:none"
           transform="matrix(1.3333333,0,0,-1.3333333,826.72598,260.23286)"
           clip-path="url(#clipPath60)" />
        <path
           id="path61"
           d="m 0,0 h -27.379 c 2.983,3.044 4.308,5.659 6.025,5.948 C -8.846,8.054 -0.684,5.848 0,0"
           style="fill:#1d3743;fill-opacity:1;fill-rule:nonzero;stroke:none"
           transform="matrix(1.3333333,0,0,-1.3333333,937.56038,268.80596)"
           clip-path="url(#clipPath62)" />
        <path
           id="path63"
           d="M 0,0 C -8.91,3.34 -18.993,-3.934 -27.208,5.915 -10.284,9.7 -0.57,7.887 0,0"
           style="fill:#1d3743;fill-opacity:1;fill-rule:nonzero;stroke:none"
           transform="matrix(1.3333333,0,0,-1.3333333,782.25558,283.42086)"
           clip-path="url(#clipPath64)" />
        <path
           id="path65"
           d="M 0,0 C 1.864,-7.026 -2.957,-6.623 -6.614,-5.962 -12.761,-4.851 -20.88,-9.871 -26.737,0 Z"
           style="fill:#1d3743;fill-opacity:1;fill-rule:nonzero;stroke:none"
           transform="matrix(1.3333333,0,0,-1.3333333,858.85488,273.79886)"
           clip-path="url(#clipPath66)" />
        <path
           id="path67"
           d="M 0,0 C -5.347,-10.22 -13.604,-5.195 -19.707,-6.062 -25.753,-6.921 -25.855,-6.198 -26.461,0 Z"
           style="fill:#1d3743;fill-opacity:1;fill-rule:nonzero;stroke:none"
           transform="matrix(1.3333333,0,0,-1.3333333,745.77478,249.40556)"
           clip-path="url(#clipPath68)" />
        <path
           id="path69"
           d="m 0,0 c -0.424,-7.833 -2.162,-8.216 -24.184,-6.435 -1.479,4.106 -1.293,6.76 4.36,6.502 C -13.475,-0.223 -7.103,0 0,0"
           style="fill:#1d3743;fill-opacity:1;fill-rule:nonzero;stroke:none"
           transform="matrix(1.3333333,0,0,-1.3333333,977.02048,248.47606)"
           clip-path="url(#clipPath70)" />
        <path
           id="path71"
           d="M 0,0 H 25.926 C 23.496,-2.916 22.217,-5.895 20.689,-6.028 14.65,-6.556 8.509,-6.475 2.46,-5.968 0.88,-5.835 -0.504,-3.352 -1.978,-1.948 -1.319,-1.299 -0.659,-0.649 0,0"
           style="fill:#1d3743;fill-opacity:1;fill-rule:nonzero;stroke:none"
           transform="matrix(1.3333333,0,0,-1.3333333,905.53408,249.12706)"
           clip-path="url(#clipPath72)" />
        <path
           id="path73"
           d="M 0,0 H 23.313 C 25.288,-5.129 23.043,-7.195 18.506,-6.205 12.005,-4.787 3.49,-9.973 -1.331,-2.76 -0.887,-1.84 -0.443,-0.92 0,0"
           style="fill:#1d3743;fill-opacity:1;fill-rule:nonzero;stroke:none"
           transform="matrix(1.3333333,0,0,-1.3333333,1022.432,249.13806)"
           clip-path="url(#clipPath74)" />
        <path
           id="path75"
           d="M 0,0 H 24.803 C 20.761,-10.359 12.61,-4.645 7.129,-5.821 3.955,-6.502 -1.89,-7.605 0,0"
           style="fill:#1d3743;fill-opacity:1;fill-rule:nonzero;stroke:none"
           transform="matrix(1.3333333,0,0,-1.3333333,1099.9511,249.50686)"
           clip-path="url(#clipPath76)" />
        <path
           id="path77"
           d="M 0,0 H 25.737 C 25.347,-2.117 25.088,-5.572 24.651,-5.594 17.14,-5.985 9.601,-6.098 2.09,-5.774 1.385,-5.744 0.823,-2.38 0,0"
           style="fill:#1d3743;fill-opacity:1;fill-rule:nonzero;stroke:none"
           transform="matrix(1.3333333,0,0,-1.3333333,748.04118,249.50396)"
           clip-path="url(#clipPath78)" />
        <path
           id="path79"
           d="M 0,0 H 23.258 C 23.774,-0.678 24.29,-1.357 24.806,-2.035 23.029,-3.537 20.999,-6.537 19.519,-6.286 12.638,-5.121 3.732,-10.539 -1.29,-2.746 -0.86,-1.83 -0.43,-0.915 0,0"
           style="fill:#1d3743;fill-opacity:1;fill-rule:nonzero;stroke:none"
           transform="matrix(1.3333333,0,0,-1.3333333,1061.6957,273.67396)"
           clip-path="url(#clipPath80)" />
        <path
           id="path81"
           d="M 0,0 C 0.459,7.259 3.854,8.024 23.603,5.765 23.85,-1.473 22.691,-1.767 0,0"
           style="fill:#1d3743;fill-opacity:1;fill-rule:nonzero;stroke:none"
           transform="matrix(1.3333333,0,0,-1.3333333,944.74308,281.89766)"
           clip-path="url(#clipPath82)" />
        <path
           id="path83"
           d="m 0,0 h -23.998 c -0.512,0.648 -1.024,1.296 -1.536,1.943 1.669,1.283 3.232,3.5 5.023,3.703 C -5.024,7.404 -0.824,6.23 0,0"
           style="fill:#1d3743;fill-opacity:1;fill-rule:nonzero;stroke:none"
           transform="matrix(1.3333333,0,0,-1.3333333,1093.6364,268.80606)"
           clip-path="url(#clipPath84)" />
        <path
           id="path85"
           d="M 0,0 C 0.573,-7.184 -0.851,-7.54 -22.758,-5.691 -24.096,1.538 -20.909,2.335 0,0"
           style="fill:#1d3743;fill-opacity:1;fill-rule:nonzero;stroke:none"
           transform="matrix(1.3333333,0,0,-1.3333333,1014.6181,274.24146)"
           clip-path="url(#clipPath86)" />
        <path
           id="path87"
           d="m 0,0 h -23.046 c -0.523,0.621 -1.046,1.243 -1.569,1.864 1.635,1.33 3.544,4.025 4.858,3.761 6.89,-1.386 15.547,3.864 21.065,-2.914 z"
           style="fill:#1d3743;fill-opacity:1;fill-rule:nonzero;stroke:none"
           transform="matrix(1.3333333,0,0,-1.3333333,976.09348,268.82646)"
           clip-path="url(#clipPath88)" />
        <path
           id="path89"
           d="M 0,0 H 23.141 C 25.647,-5.745 22.392,-6.083 18.214,-6.246 0.312,-6.944 0.206,-6.977 0,0"
           style="fill:#1d3743;fill-opacity:1;fill-rule:nonzero;stroke:none"
           transform="matrix(1.3333333,0,0,-1.3333333,983.70828,249.36886)"
           clip-path="url(#clipPath90)" />
        <path
           id="path91"
           d="m 0,0 h -23.945 c -0.52,0.598 -1.041,1.196 -1.561,1.794 1.632,1.348 3.154,3.693 4.913,3.888 C -5.477,7.355 -0.914,6.084 0,0"
           style="fill:#1d3743;fill-opacity:1;fill-rule:nonzero;stroke:none"
           transform="matrix(1.3333333,0,0,-1.3333333,1054.2407,268.83026)"
           clip-path="url(#clipPath92)" />
        <path
           id="path93"
           d="M 0,0 C 0.246,7.193 3.793,8.006 23.779,5.866 23.89,-1.762 23.318,-1.909 0,0"
           style="fill:#1d3743;fill-opacity:1;fill-rule:nonzero;stroke:none"
           transform="matrix(1.3333333,0,0,-1.3333333,711.03048,281.89826)"
           clip-path="url(#clipPath94)" />
        <path
           id="path95"
           d="m 0,0 c 1.596,1.296 3.115,3.579 4.801,3.709 5.563,0.427 11.2,0.275 16.776,-0.12 C 22.908,3.494 24.11,1.594 25.372,0.524 23.976,-0.38 22.61,-2.004 21.179,-2.064 14.517,-2.342 7.836,-2.187 1.163,-2.187 0.775,-1.458 0.388,-0.729 0,0"
           style="fill:#1d3743;fill-opacity:1;fill-rule:nonzero;stroke:none"
           transform="matrix(1.3333333,0,0,-1.3333333,1098.1759,266.28956)"
           clip-path="url(#clipPath96)" />
        <path
           id="path97"
           d="m 0,0 c 5.683,6.411 14.402,0.777 21.22,2.775 1.065,0.312 3.037,-2.472 4.59,-3.825 -0.433,-0.567 -0.867,-1.135 -1.301,-1.702 H 1.2 C 0.8,-1.835 0.4,-0.917 0,0"
           style="fill:#1d3743;fill-opacity:1;fill-rule:nonzero;stroke:none"
           transform="matrix(1.3333333,0,0,-1.3333333,982.51008,265.08766)"
           clip-path="url(#clipPath98)" />
        <path
           id="path99"
           d="m 0,0 h -24.769 c 0.887,5.49 0.887,5.49 9.674,5.574 C -1.047,5.708 -1.047,5.708 0,0"
           style="fill:#1d3743;fill-opacity:1;fill-rule:nonzero;stroke:none"
           transform="matrix(1.3333333,0,0,-1.3333333,743.63278,268.92686)"
           clip-path="url(#clipPath100)" />
        <path
           id="path101"
           d="m 0,0 c -0.568,-1.612 -0.946,-3.793 -1.401,-3.809 -7.414,-0.261 -14.841,-0.331 -22.258,-0.168 -0.76,0.017 -1.481,1.8 -2.22,2.764 1.335,0.944 2.697,2.735 4,2.693 C -14.773,1.25 -7.682,0.569 0,0"
           style="fill:#1d3743;fill-opacity:1;fill-rule:nonzero;stroke:none"
           transform="matrix(1.3333333,0,0,-1.3333333,859.97168,238.35926)"
           clip-path="url(#clipPath102)" />
        <path
           id="path103"
           d="M 0,0 H 26.244 C 24.11,-2.558 22.882,-5.238 21.742,-5.201 14.124,-4.954 6.087,-6.253 -1.27,-4.412 -0.847,-2.941 -0.423,-1.471 0,0"
           style="fill:#1d3743;fill-opacity:1;fill-rule:nonzero;stroke:none"
           transform="matrix(1.3333333,0,0,-1.3333333,710.86268,237.87826)"
           clip-path="url(#clipPath104)" />
        <path
           id="path105"
           d="m 0,0 c -6.563,-5.164 -14.925,-1.505 -22.268,-2.768 -1.059,-0.182 -2.643,2.687 -5.055,5.308 H -0.675 C -0.45,1.693 -0.225,0.847 0,0"
           style="fill:#1d3743;fill-opacity:1;fill-rule:nonzero;stroke:none"
           transform="matrix(1.3333333,0,0,-1.3333333,1094.2032,241.75506)"
           clip-path="url(#clipPath106)" />
        <path
           id="path107"
           d="M 0,0 C 0.081,1.244 0.136,4.186 0.295,4.192 7.859,4.458 15.433,4.5 23.003,4.385 23.258,4.381 23.999,1.987 23.621,1.616 22.765,0.776 21.36,0.094 20.162,0.068 13.572,-0.074 6.977,0 0,0"
           style="fill:#1d3743;fill-opacity:1;fill-rule:nonzero;stroke:none"
           transform="matrix(1.3333333,0,0,-1.3333333,1099.3947,244.94046)"
           clip-path="url(#clipPath108)" />
        <path
           id="path109"
           d="m 0,0 c -1.494,-0.873 -2.952,-2.419 -4.487,-2.5 -5.861,-0.312 -11.751,-0.277 -17.619,-0.068 -1.235,0.044 -2.424,1.371 -3.634,2.108 1.195,1.061 2.355,2.989 3.592,3.039 7.136,0.294 14.289,0.144 21.437,0.144 C -0.474,1.815 -0.237,0.908 0,0"
           style="fill:#1d3743;fill-opacity:1;fill-rule:nonzero;stroke:none"
           transform="matrix(1.3333333,0,0,-1.3333333,899.27848,241.04806)"
           clip-path="url(#clipPath110)" />
        <path
           id="path111"
           d="M 0,0 C 0.235,2.243 0.305,4.221 0.463,4.228 8.415,4.585 16.374,4.815 24.333,4.86 24.727,4.863 25.704,2.532 25.428,2.251 24.451,1.255 23.081,0.61 21.787,-0.021 21.344,-0.237 20.689,-0.003 20.13,-0.003 13.719,0.001 7.308,0 0,0"
           style="fill:#1d3743;fill-opacity:1;fill-rule:nonzero;stroke:none"
           transform="matrix(1.3333333,0,0,-1.3333333,748.37198,269.08766)"
           clip-path="url(#clipPath112)" />
        <path
           id="path113"
           d="M 0,0 C -1.485,-1.051 -2.88,-2.839 -4.471,-3.036 -17.248,-4.616 -23.603,-3.26 -25.768,1.568 H -0.912 C -0.608,1.045 -0.304,0.523 0,0"
           style="fill:#1d3743;fill-opacity:1;fill-rule:nonzero;stroke:none"
           transform="matrix(1.3333333,0,0,-1.3333333,1055.1524,240.57516)"
           clip-path="url(#clipPath114)" />
        <path
           id="path115"
           d="m 0,0 c 3.323,0 6.664,0.182 9.959,-0.121 0.883,-0.081 2.237,-1.627 2.259,-2.527 0.02,-0.807 -1.466,-2.331 -2.339,-2.37 -6.64,-0.292 -13.293,-0.387 -19.939,-0.289 -0.955,0.015 -1.889,1.398 -2.833,2.147 0.972,1.004 1.859,2.749 2.934,2.874 3.281,0.381 6.634,0.138 9.959,0.138 z"
           style="fill:#1d3743;fill-opacity:1;fill-rule:nonzero;stroke:none"
           transform="matrix(1.3333333,0,0,-1.3333333,765.90108,237.61226)"
           clip-path="url(#clipPath116)" />
        <path
           id="path117"
           d="M 0,0 C 2.016,4.779 7.944,5.6 24.131,3.342 23.047,-1.326 14.453,-2.516 0,0"
           style="fill:#1d3743;fill-opacity:1;fill-rule:nonzero;stroke:none"
           transform="matrix(1.3333333,0,0,-1.3333333,944.52828,243.37766)"
           clip-path="url(#clipPath118)" />
        <path
           id="path119"
           d="m 0,0 c 8.266,0 15.225,0.081 22.177,-0.085 1.075,-0.026 2.673,-0.979 3.008,-1.883 0.265,-0.714 -1.039,-2.912 -1.64,-2.91 C 16.311,-4.853 9.076,-4.593 1.853,-4.182 1.389,-4.156 1.024,-2.386 0,0"
           style="fill:#1d3743;fill-opacity:1;fill-rule:nonzero;stroke:none"
           transform="matrix(1.3333333,0,0,-1.3333333,981.97628,237.90476)"
           clip-path="url(#clipPath120)" />
        <path
           id="path121"
           d="M 0,0 H 24.505 C 19.003,-7.632 11.188,-3.684 4.445,-4.625 2.818,-4.852 0.89,-2.912 -0.899,-1.969 -0.6,-1.313 -0.3,-0.656 0,0"
           style="fill:#1d3743;fill-opacity:1;fill-rule:nonzero;stroke:none"
           transform="matrix(1.3333333,0,0,-1.3333333,904.41048,238.53666)"
           clip-path="url(#clipPath122)" />
        <path
           id="path123"
           d="m 0,0 h -18.971 c -0.058,0.664 -0.233,2.667 -0.403,4.619 C -5.143,7.376 -0.369,6.252 0,0"
           style="fill:#1d3743;fill-opacity:1;fill-rule:nonzero;stroke:none"
           transform="matrix(1.3333333,0,0,-1.3333333,704.83468,293.16796)"
           clip-path="url(#clipPath124)" />
        <path
           id="path125"
           d="m 0,0 h -15.485 c 0.261,2.146 0.505,4.144 0.786,6.452 C -9.109,5.321 -4.164,4.32 0.781,3.32 0.521,2.213 0.26,1.107 0,0"
           style="fill:#1d3743;fill-opacity:1;fill-rule:nonzero;stroke:none"
           transform="matrix(1.3333333,0,0,-1.3333333,1156.5388,280.06436)"
           clip-path="url(#clipPath126)" />
        <path
           id="path127"
           d="m 0,0 c 3.612,-0.892 7.223,-1.784 11.849,-2.927 0.121,-2.135 0.283,-4.999 0.446,-7.864 -0.458,-0.079 -0.915,-0.158 -1.373,-0.237 -0.563,2.312 -1.125,4.625 -1.754,7.21 -4.27,0.338 -8.376,0.663 -13.635,1.08 -0.21,4.669 -0.42,9.323 -0.663,14.71 C -0.128,8.441 -7.368,1.358 0.201,-0.134 0.197,-0.132 0,0 0,0"
           style="fill:#1d3743;fill-opacity:1;fill-rule:nonzero;stroke:none"
           transform="matrix(1.3333333,0,0,-1.3333333,1147.8407,264.48986)"
           clip-path="url(#clipPath128)" />
        <path
           id="path129"
           d="m 0,0 c -13.16,-4.794 -26.713,-8.753 -39.328,-14.702 -7.286,-3.435 -13.879,-7.373 -22.191,-6.163 -1.995,0.291 -3.925,1.02 -5.886,1.547 0.053,0.879 0.106,1.757 0.158,2.636 h 13.997 c 0.082,0.492 0.163,0.985 0.245,1.478 -1.773,1.005 -3.545,2.009 -6.091,3.453 3.474,3.099 6.251,7.445 9.968,8.509 8.158,2.334 16.749,3.502 25.242,4.213 C -15.883,1.641 -7.78,1.115 0.28,1.115 0.186,0.743 0.093,0.372 0,0"
           style="fill:#1d3743;fill-opacity:1;fill-rule:nonzero;stroke:none"
           transform="matrix(1.3333333,0,0,-1.3333333,322.36808,16.743255)"
           clip-path="url(#clipPath130)" />
        <path
           id="path131"
           d="M 0,0 C -2.225,-1.407 -4.45,-2.813 -8.368,-5.29 -9.434,10.168 -5.297,21.356 7.162,29.883 8.926,18.616 1.817,9.681 -0.311,-0.311 -0.305,-0.304 0,0 0,0"
           style="fill:#1d3743;fill-opacity:1;fill-rule:nonzero;stroke:none"
           transform="matrix(1.3333333,0,0,-1.3333333,525.08988,477.25086)"
           clip-path="url(#clipPath132)" />
        <path
           id="path133"
           d="M 0,0 C 2.275,0.61 4.549,1.219 6.824,1.829 7.05,0.875 7.276,-0.078 7.502,-1.032 3.833,-1.302 0.146,-1.859 -3.487,-1.615 -4.265,-1.563 -5.806,2.445 -5.37,2.841 -1.884,6.003 1.992,8.736 6.879,9.978 4.252,7.118 1.624,4.257 -1.003,1.397 -0.669,0.931 -0.334,0.466 0,0"
           style="fill:#1d3743;fill-opacity:1;fill-rule:nonzero;stroke:none"
           transform="matrix(1.3333333,0,0,-1.3333333,200.13198,42.387055)"
           clip-path="url(#clipPath134)" />
        <path
           id="path135"
           d="M 0,0 C 5.436,4.605 10.054,8.781 15.782,0 Z"
           style="fill:#1d3743;fill-opacity:1;fill-rule:nonzero;stroke:none"
           transform="matrix(1.3333333,0,0,-1.3333333,155.41828,319.73276)"
           clip-path="url(#clipPath136)" />
      </g>
    </g>
    <path
       id="path137"
       d="m 1365.3217,371.2467 c -23.8627,0 -41.991,-8.54296 -54.3804,-25.63401 -12.3939,-17.10133 -18.5886,-41.13058 -18.5886,-72.08777 V 108.38548 c 0,-29.882248 6.1947,-52.430258 18.5886,-67.643998 12.3894,-15.20848 30.5177,-22.81542 54.3804,-22.81542 23.8714,0 41.9997,7.60694 54.3804,22.81542 12.3895,15.21374 18.5886,37.76175 18.5886,67.643998 v 165.13944 c 0,31.22987 -6.1991,55.33115 -18.5886,72.29356 -12.3807,16.95215 -30.509,25.42822 -54.3804,25.42822 z m 0,-63.79694 c 5.2828,0 8.8427,-2.6847 10.6796,-8.06462 1.8326,-5.39006 2.7532,-12.93011 2.7532,-22.63029 V 107.17177 c 0,-7.540048 -0.868,-13.665598 -2.5954,-18.371778 -1.7185,-4.71632 -5.217,-7.07711 -10.4867,-7.07711 -9.8687,0 -14.8007,8.75389 -14.8007,26.251268 v 169.19216 c 0,9.95733 1.0259,17.49738 3.0864,22.60975 2.0692,5.11751 5.8571,7.6737 11.3636,7.6737 z m 138.0247,60.56689 V 21.155992 h 118.4059 v 67.43834 h -58.8698 v 55.320738 h 55.7658 v 66.61542 h -55.7658 v 157.48616 z m 175.8771,0 -1.6055,-287.128838 60.3446,0.56762 -1.6055,286.561218 z m -1.3679,-341.754128 v 71.02251 h 60.2201 V 25.694902 Z M 1871.6199,371.2467 c -26.857,0 -46.2523,-7.80233 -58.1859,-23.41213 -11.9247,-15.62007 -17.8871,-40.79627 -17.8871,-75.52349 v -33.90429 h 58.1683 v 43.20329 c 0,17.22996 4.7041,25.83968 14.1169,25.83968 5.2696,0 8.9435,-1.81556 11.0128,-5.45181 2.0693,-3.63112 3.1039,-9.75667 3.1039,-18.37165 0,-11.29968 -1.153,-20.65529 -3.4546,-28.06157 -2.2929,-7.40627 -5.2172,-13.59871 -8.7682,-18.57744 -3.5556,-4.9786 -9.9257,-12.71918 -19.1148,-23.22688 l -25.4628,-29.87198 c -19.7372,-22.61489 -29.6015,-47.65219 -29.6015,-75.11203 0,-29.609698 5.7914,-52.152438 17.3786,-67.623328 11.5828,-15.48129 28.5054,-23.22701 50.768,-23.22701 26.6202,0 45.7787,8.28582 57.4843,24.85218 11.7012,16.55609 17.5539,42.46266 17.5539,77.724828 h -60.2375 l -0.3332,-23.823588 c 0,-4.57741 -1.0961,-8.21379 -3.2794,-10.90362 -2.1745,-2.70023 -5.217,-4.05298 -9.1189,-4.05298 -4.5857,0 -8.0272,1.48126 -10.3289,4.44377 -2.2929,2.96251 -3.4372,7.00522 -3.4372,12.11759 0,11.304808 5.5064,23.015948 16.5193,35.138668 l 34.424,38.75952 c 8.0317,9.14981 14.6823,17.83155 19.9565,26.04534 5.2828,8.20352 9.5266,17.89344 12.7314,29.06961 3.2135,11.18143 4.8225,24.43558 4.8225,39.76769 0,34.19225 -5.3398,60.10908 -16.0107,77.74524 -10.6621,17.62602 -28.2687,26.43639 -52.8197,26.43639 z"
       style="fill:#1d3743;fill-opacity:1;fill-rule:nonzero;stroke:none;stroke-width:1.62083"
       aria-label="OFİS PRO"
       sodipodi:nodetypes="scsssscsscsscsscssscscccccccccccccccccccccscsccsscsccccscscccccscsccccscs" />
    <path
       id="path137-5"
       d="m 1606.9362,400.58489 h 43.1057 c 13.043,0 22.3463,4.21382 27.9147,12.63663 5.5733,8.41793 8.3599,20.73045 8.3599,36.93255 0,16.20459 -2.4722,28.42273 -7.4116,36.65197 -4.9347,8.23171 -13.7953,12.34633 -26.5795,12.34633 h -13.2945 v 64.56669 h -32.0947 z m 33.9911,69.1337 c 3.9211,0 6.8021,-0.72811 8.6405,-2.18676 1.8384,-1.45617 3.0406,-3.54615 3.6091,-6.26993 0.566,-2.7213 0.8515,-6.61342 0.8515,-11.67871 0,-6.83592 -0.762,-11.77545 -2.2835,-14.81362 -1.5167,-3.03824 -4.5525,-4.55732 -9.105,-4.55732 h -3.609 v 39.50634 z m 78.4321,-69.1337 h 50.1304 c 7.9777,0 14.1509,1.80697 18.5195,5.41845 4.3662,3.60671 7.3077,8.66953 8.8243,15.19105 1.5215,6.52153 2.2835,14.84755 2.2835,24.97325 0,9.24524 -1.2046,16.46343 -3.6091,21.65449 -2.4068,5.18624 -6.5844,8.79288 -12.5301,10.81753 4.9346,1.01353 8.5074,3.48329 10.7208,7.4117 2.2181,3.92352 3.3285,9.23793 3.3285,15.94573 l -0.3774,61.72197 h -31.9011 v -63.81194 c 0,-4.55249 -0.8878,-7.46248 -2.6609,-8.72761 -1.7755,-1.26997 -5.0024,-1.90612 -9.6855,-1.90612 v 74.44567 h -33.0429 z m 41.0158,60.39643 c 4.5597,0 6.8408,-4.93711 6.8408,-14.81368 0,-4.30089 -0.1911,-7.53016 -0.5709,-9.68547 -0.3822,-2.15289 -1.0788,-3.64052 -2.09,-4.46053 -1.0135,-0.82491 -2.4673,-1.23851 -4.3638,-1.23851 h -7.5955 v 30.19819 z m 111.2839,104.25689 c -13.1664,0 -23.1688,-4.01789 -30.0047,-12.05609 -6.8384,-8.04303 -10.2564,-19.3444 -10.2564,-33.90406 v -77.66774 c 0,-14.05411 3.418,-24.65879 10.2564,-31.81406 6.8359,-7.15279 16.8383,-10.73046 30.0047,-10.73046 13.1711,0 23.1736,3.57767 30.0046,10.73046 6.836,7.15527 10.2564,17.75995 10.2564,31.81406 v 77.66774 c 0,14.68791 -3.4204,26.02315 -10.2564,34.00085 -6.831,7.97286 -16.8335,11.9593 -30.0046,11.9593 z m 0,-30.00476 c 2.9148,0 4.879,-1.26265 5.8925,-3.79292 1.0111,-2.53503 1.5192,-6.08123 1.5192,-10.64339 v -79.75765 c 0,-3.54621 -0.479,-6.42715 -1.4321,-8.64054 -0.9482,-2.21816 -2.8785,-3.32848 -5.7861,-3.32848 -5.4451,0 -8.1664,4.1171 -8.1664,12.34639 v 79.5738 c 0,4.68309 0.5661,8.2293 1.7029,10.63373 1.1418,2.40685 3.2318,3.60906 6.27,3.60906 z"
       style="fill:#1d3743;fill-opacity:1;fill-rule:nonzero;stroke:none;stroke-width:0.825667"
       aria-label="OFİS PRO"
       sodipodi:nodetypes="cscscsccccsccscsccscsccsccccccscccccssccsccsscsssscsscsscsscssscs" />
  </g>
</svg>
