<?xml version="1.0" encoding="UTF-8" standalone="no"?>
<svg
   xml:space="preserve"
   width="26"
   height="26"
   style="isolation:isolate"
   viewBox="66.993 897.484 26 26"
   version="1.1"
   id="svg2"
   sodipodi:docname="logo.svg"
   inkscape:version="1.4 (86a8ad7, 2024-10-11)"
   xmlns:inkscape="http://www.inkscape.org/namespaces/inkscape"
   xmlns:sodipodi="http://sodipodi.sourceforge.net/DTD/sodipodi-0.dtd"
   xmlns:xlink="http://www.w3.org/1999/xlink"
   xmlns="http://www.w3.org/2000/svg"
   xmlns:svg="http://www.w3.org/2000/svg"><sodipodi:namedview
     id="namedview2"
     pagecolor="#ffffff"
     bordercolor="#000000"
     borderopacity="0.25"
     inkscape:showpageshadow="2"
     inkscape:pageopacity="0.0"
     inkscape:pagecheckerboard="0"
     inkscape:deskcolor="#d1d1d1"
     inkscape:zoom="10.973753"
     inkscape:cx="-12.666587"
     inkscape:cy="23.009447"
     inkscape:window-width="1920"
     inkscape:window-height="1009"
     inkscape:window-x="-8"
     inkscape:window-y="-8"
     inkscape:window-maximized="1"
     inkscape:current-layer="svg2" /><defs
     id="defs1"><linearGradient
       xlink:href="#a"
       id="b"
       x1=".148"
       x2=".845"
       y1=".851"
       y2=".154"
       gradientTransform="matrix(26.00048 0 0 25.99935 66.993 897.485)"
       gradientUnits="userSpaceOnUse" /><clipPath
       clipPathUnits="userSpaceOnUse"
       id="clipPath2"><path
         d="M 0,1024 H 1024 V 0 H 0 Z"
         transform="translate(-143.42181,-649.88631)"
         id="path2" /></clipPath><clipPath
       clipPathUnits="userSpaceOnUse"
       id="clipPath14"><path
         d="M 0,1024 H 1024 V 0 H 0 Z"
         transform="translate(-411.63171,-628.84701)"
         id="path14" /></clipPath><clipPath
       clipPathUnits="userSpaceOnUse"
       id="clipPath20"><path
         d="M 0,1024 H 1024 V 0 H 0 Z"
         transform="translate(-147.6202,-845.93292)"
         id="path20" /></clipPath><clipPath
       clipPathUnits="userSpaceOnUse"
       id="clipPath130"><path
         d="M 0,1024 H 1024 V 0 H 0 Z"
         transform="translate(-268.6342,-877.12842)"
         id="path130" /></clipPath><clipPath
       clipPathUnits="userSpaceOnUse"
       id="clipPath132"><path
         d="M 0,1024 H 1024 V 0 H 0 Z"
         transform="translate(-420.67551,-531.74771)"
         id="path132" /></clipPath><clipPath
       clipPathUnits="userSpaceOnUse"
       id="clipPath134"><path
         d="M 0,1024 H 1024 V 0 H 0 Z"
         transform="translate(-176.9571,-857.89562)"
         id="path134" /></clipPath><clipPath
       clipPathUnits="userSpaceOnUse"
       id="clipPath136"><path
         d="M 0,1024 H 1024 V 0 H 0 Z"
         transform="translate(-143.42181,-649.88631)"
         id="path136" /></clipPath><clipPath
       clipPathUnits="userSpaceOnUse"
       id="clipPath139"><path
         d="M 0,1024 H 1024 V 0 H 0 Z"
         transform="translate(-249.86031,-465.36891)"
         id="path139" /></clipPath></defs><linearGradient
     id="a"
     x1=".148"
     x2=".845"
     y1=".851"
     y2=".154"
     gradientTransform="matrix(26.301 0 0 26.331 90.674 911.757)"
     gradientUnits="userSpaceOnUse"><stop
       offset="0"
       stop-color="#004ba6"
       style="stop-color:#0071ff;stop-opacity:1"
       id="stop1" /><stop
       offset="1"
       stop-color="#00bfe1"
       style="stop-color:#00bfe1;stop-opacity:1"
       id="stop2" /></linearGradient><g
     id="g153"
     transform="matrix(0.0457373,0,0,0.04428754,64.308069,889.68705)"
     style="fill:#008fc2;fill-opacity:1"><path
       id="path1"
       d="M 0,0 H 15.782 C 10.054,8.781 5.436,4.605 0,0 m 190.354,153.821 c 3.64,-1.103 6.825,-2.069 10.924,-3.313 -1.986,4.946 -3.364,8.378 -5.117,12.743 -2.083,-3.383 -3.661,-5.945 -5.807,-9.43 M 33.535,208.009 c -0.334,0.466 -0.669,0.932 -1.003,1.397 2.627,2.861 5.255,5.721 7.882,8.581 -4.887,-1.242 -8.763,-3.974 -12.249,-7.137 -0.435,-0.395 1.105,-4.404 1.883,-4.456 3.634,-0.244 7.321,0.313 10.989,0.583 -0.226,0.954 -0.452,1.908 -0.678,2.861 -2.275,-0.609 -4.549,-1.219 -6.824,-1.829 M 60.603,96.427 c 6.404,0 10.217,-0.251 13.97,0.113 1.701,0.165 3.559,1.268 4.809,2.494 0.652,0.639 0.586,2.7 0.063,3.715 -1.438,2.787 -3.289,5.361 -5.628,9.045 -3.721,-4.326 -8.239,-9.581 -13.214,-15.367 m 64.609,130.815 c 0.094,0.372 0.187,0.743 0.28,1.115 -8.059,0 -16.162,0.526 -24.166,-0.144 -8.492,-0.711 -17.084,-1.879 -25.242,-4.213 -3.716,-1.064 -6.494,-5.41 -9.968,-8.509 2.546,-1.443 4.319,-2.448 6.091,-3.453 -0.081,-0.493 -0.163,-0.985 -0.244,-1.478 H 57.966 c -0.053,-0.879 -0.106,-1.757 -0.158,-2.636 1.96,-0.527 3.891,-1.256 5.886,-1.547 8.311,-1.21 14.905,2.728 22.19,6.163 12.615,5.949 26.169,9.908 39.328,14.702 m 152.042,-345.381 c -11.268,-11.817 -21.29,-25.232 -34.029,-35.162 -44.019,-34.315 -94.585,-49.262 -150.267,-45.65 -13.223,0.857 -26.279,4.285 -40.386,6.697 1.293,2.983 2.056,4.742 2.985,6.884 -0.96,0.448 -1.858,1.077 -2.846,1.293 -5.821,1.273 -4.765,5.056 -3.268,8.917 1.175,3.029 2.539,5.985 4.427,10.395 7.608,-0.094 3.356,7.774 4.95,13.498 6.609,0.443 10.936,3.76 10.282,11.456 -0.072,0.846 0.385,2.277 1.001,2.562 8.955,4.133 8.761,11.722 7.423,20.637 14.08,2.031 19.864,10.859 19.713,24.725 -0.027,2.544 3.033,5.133 4.698,7.682 7.112,10.894 4.676,17.158 -7.433,21.075 -6.704,2.168 -12.95,5.719 -19.535,8.309 -2.595,1.021 -5.55,1.126 -8.642,1.704 1.161,10.455 -3.172,15.716 -14.973,17.196 -2.285,0.286 -4.735,1.266 -6.587,2.633 -6.198,4.577 -11.786,10.115 -18.38,13.958 -2.972,1.731 -7.911,0.987 -11.706,0.182 -4.975,-1.055 -9.793,-3.064 -14.512,-5.058 -5.958,-2.518 -7.429,-7.214 -6.206,-13.401 0.366,-1.849 -0.677,-4.31 -1.766,-6.061 -6.624,-10.655 -4.744,-16.244 1.363,-26.811 6.339,-10.969 14.835,-18.95 23.852,-27.196 3.374,-3.086 4.317,-9.365 5.298,-14.396 1.28,-6.562 0.937,-13.446 2.275,-19.991 3.72,-18.191 7.948,-36.279 11.789,-53.571 -92.245,32.313 -144.598,139.485 -133.247,217.194 3.206,-6.968 6.291,-13.671 9.376,-20.375 0.784,0.268 1.568,0.536 2.352,0.804 -1.338,7.495 -2.676,14.99 -4.013,22.486 0.494,0.418 0.989,0.836 1.484,1.254 3.319,-5.007 8.4,-9.63 9.595,-15.101 2.582,-11.824 10.033,-18.959 19.249,-25.203 0.912,-0.618 1.87,-1.686 2.8,-1.679 8.549,0.063 15.332,-4.02 22.85,-7.449 5.238,-2.389 8.2,-5.354 11.395,-9.204 6.372,-7.678 9.654,-7.939 15.411,-1.375 -10.4,2.748 -10.4,2.748 -11.934,15.083 -10.078,1.96 -10.078,1.96 -9.803,20.081 -3.568,-2.167 -6.087,-3.793 -8.697,-5.256 -2.856,-1.601 -5.915,-4.427 -8.666,-4.188 -2.867,0.249 -6.597,2.926 -7.989,5.572 -5.107,9.706 -0.697,23.526 8.572,27.348 2.618,1.079 6.106,0.033 9.195,-0.012 1.917,-0.028 4.185,-0.682 5.693,0.102 8.465,4.404 14.384,1.939 17.064,-7.054 1.045,-3.508 3.054,-6.729 5.128,-11.156 1.564,2.341 2.192,2.881 2.094,3.19 -5.961,18.683 -5.832,18.518 9.558,31.183 3.091,2.544 4.68,6.887 7.047,10.342 2.005,2.928 3.803,6.099 6.274,8.585 5.129,5.161 10.492,10.12 16.074,14.786 2.275,1.902 3.718,6.929 9.027,1.392 1.871,-1.95 11.411,3.455 17.45,5.501 -0.277,1.059 -0.554,2.118 -0.83,3.177 -4.197,-0.798 -8.393,-1.596 -13.792,-2.623 1.847,4.36 3.175,7.494 5.224,12.33 -5.295,-1.275 -9.121,-2.196 -12.789,-3.079 4.947,7.229 11.005,8.802 18.275,4.83 6.915,3.847 13.662,7.6 19.531,10.865 -3.74,8.954 -7.23,17.31 -10.439,24.994 -0.501,-1.16 -1.615,-3.741 -2.456,-5.689 -4.513,6.601 -8.131,13.073 -13.022,18.37 -1.596,1.729 -7.954,1.846 -9.629,0.18 -4.655,-4.627 -8.76,-10.17 -7.175,-17.855 0.281,-1.363 -1.716,-4.069 -3.288,-4.79 -7.002,-3.213 -13.077,-6.771 -13.705,-15.678 -0.124,-1.755 -2.571,-3.346 -4.555,-5.75 -0.865,6.362 -1.586,11.663 -2.262,16.635 -7.317,4.484 -14.66,8.984 -22.749,13.941 11.736,14.722 27.31,21.66 42.099,29.727 0.555,-0.614 1.11,-1.227 1.665,-1.84 -2.665,-1.441 -5.33,-2.882 -7.995,-4.323 0.443,-0.526 0.886,-1.052 1.329,-1.578 h 15.845 c -7.995,4.441 -8.281,7.478 -1.715,11.379 3.891,2.311 6.744,6.497 9.783,10.078 3.672,4.327 9.796,4.535 14.298,0.355 1.171,-1.088 2.78,-1.704 6.138,-3.689 -4.901,-4.644 -9.175,-8.695 -14.476,-13.718 1.436,-3.707 3.745,-9.665 5.936,-15.319 6.305,2.585 10.662,4.617 15.183,6.174 8.941,3.079 0.177,8.073 1.3,13.327 4.449,-7.382 8.613,-6.209 15.398,1.475 -2.777,1.472 -5.703,2.652 -8.156,4.469 -1.377,1.021 -2.538,3.01 -2.801,4.716 -0.536,3.483 1.027,8.735 -0.805,10.303 -5.62,4.81 -10.764,11.128 -19.812,10.249 -7.26,-0.706 -15.185,1.898 -20.637,-5.389 -0.594,-0.793 -0.804,-1.874 -2.038,-4.89 5.021,2.119 8.306,3.506 13.208,5.575 -5.969,-7.515 -10.856,-13.665 -16.129,-20.302 -6.119,12.733 -6.119,12.733 1.73,23.717 -0.554,0.537 -1.108,1.073 -1.662,1.609 -2.743,-2.835 -6.005,-5.337 -8.091,-8.592 -2.342,-3.654 -3.621,-7.989 -5.363,-12.027 -0.822,0.208 -1.645,0.417 -2.467,0.625 0.307,5.755 0.614,11.51 0.954,17.882 -3.474,-0.58 -6.65,-1.109 -9.826,-1.639 0.434,1.065 0.869,2.129 1.65,4.045 -6.31,-0.83 -11.595,-1.526 -16.88,-2.221 l 0.292,-0.234 c 11.4,12.409 26.16,19.475 41.565,25.007 34.398,12.352 70.195,15.692 106.366,13.367 18.222,-1.171 35.879,-6.4 53.885,-15.558 -11.227,-0.799 -21.086,-3.318 -30.265,-1.779 -19.964,3.347 -38.249,-2.893 -56.953,-7.118 -3.906,-0.883 -7.622,-3.268 -10.962,-5.619 -1.147,-0.808 -1.344,-5.247 -1.188,-5.292 4.848,-1.394 6.66,-8.241 13.534,-6.606 4.554,1.083 12.074,3.165 10.558,-6.941 -0.089,-0.589 2.999,-1.655 4.538,-2.462 -0.344,-5.385 -5.695,-9.389 -3.15,-15.301 0.433,-1.006 -1.345,-3.765 -2.762,-4.622 -5.372,-3.251 -5.018,-7.088 -2.519,-12.033 1.671,-3.305 1.822,-7.394 3.566,-10.642 1.946,-3.622 4.797,-9.264 7.485,-9.398 4.084,-0.204 9.982,2.515 12.22,5.901 4.281,6.478 11.516,8.693 16.182,13.484 10.551,10.834 23.681,8.011 35.932,10.136 2.2,0.382 4.484,0.264 6.693,0.608 13.516,2.106 13.657,2.337 13.9,16.036 0.132,7.471 3.085,11.934 11.497,11.892 6.934,-0.035 13.875,1.356 20.811,1.331 2.404,-0.009 5.124,-1.991 7.148,-3.719 21.295,-18.173 38.587,-39.582 51.494,-64.47 0.475,-0.916 0.657,-1.983 1.585,-4.885 -45.79,0 -90.61,-0.772 -135.39,0.216 -44.984,0.993 -80.858,-32.667 -90.96,-69.495 -16.155,-58.895 32.223,-102.7 75.667,-101.11 8.364,0.306 16.719,0.982 25.064,1.668 6.012,0.495 11.101,-3.382 10.901,-9.54 -0.194,-5.946 1.496,-10.427 5.198,-15.242 4.814,-6.263 7.061,-13.8 3.458,-22.005 -1.183,-2.694 -2.226,-6.289 -1.42,-8.875 4.033,-12.924 8.823,-25.61 13.1,-38.462 2.365,-7.107 6.758,-8.657 12.726,-4.815 8.145,5.243 18.702,8.32 19.799,20.573 0.096,1.074 2.753,1.712 3.633,2.965 1.648,2.348 4.536,5.494 3.961,7.434 -1.993,6.717 1.718,9.466 6.595,11.525 7.528,3.178 8.843,8.735 6.57,15.744 -3.639,11.22 -2.761,20.067 8.979,26.874 9.139,5.299 16.077,13.626 17.779,26.312 -12.267,-3.271 -19.608,1.643 -23.017,12.857 l -0.215,-0.097 c 6.481,-8.507 14.966,-6.466 23.882,-5.41 9.031,1.069 18.287,0.236 28.088,0.236 -5.354,-31.613 -18.04,-59.023 -36.027,-84.159 -2.047,-2.86 -4.646,-5.325 -6.995,-7.98 2.128,9.991 9.237,18.927 7.473,30.193 -12.459,-8.526 -16.597,-19.715 -15.531,-35.173 3.918,2.477 6.144,3.884 8.369,5.29"
       style="fill:#008fc2;fill-opacity:1;fill-rule:nonzero;stroke:none"
       transform="matrix(1.3333333,0,0,-1.3333333,191.22907,498.81827)"
       clip-path="url(#clipPath2)" /><path
       id="path13"
       d="m 0,0 c -3.171,0.635 -6.341,1.815 -9.514,1.824 -45.121,0.124 -90.243,0.09 -135.365,0.094 -2.739,0.001 -5.479,0 -8.807,0 V 66.993 H 58.062 C 57.015,45.606 55.971,24.303 54.897,2.38 42.161,2.38 30.764,2.662 19.391,2.272 12.844,2.047 6.335,0.735 -0.203,-0.093 -0.214,-0.097 0,0 0,0"
       style="fill:#008fc2;fill-opacity:1;fill-rule:nonzero;stroke:none"
       transform="matrix(1.3333333,0,0,-1.3333333,548.84227,526.87067)"
       clip-path="url(#clipPath14)" /><path
       id="path19"
       d="m 0,0 c -1.495,-1.101 -2.99,-2.202 -5.339,-3.933 2.331,-0.796 3.943,-1.345 5.8,-1.979 -0.775,-1.611 -1.537,-3.196 -2.899,-6.028 4.647,0.266 8.242,0.472 12.148,0.696 -4.386,-5.156 -21.78,-6.38 -40.238,-2.555 7.561,6.846 14.149,12.809 20.736,18.772 0,0.001 -0.291,0.234 -0.291,0.234 C -10.897,-4.613 -3.078,2.284 0,0"
       style="fill:#008fc2;fill-opacity:1;fill-rule:nonzero;stroke:none"
       transform="matrix(1.3333333,0,0,-1.3333333,196.82693,237.4228)"
       clip-path="url(#clipPath20)" /><path
       id="path129"
       d="m 0,0 c -13.16,-4.794 -26.713,-8.753 -39.328,-14.702 -7.286,-3.435 -13.879,-7.373 -22.191,-6.163 -1.995,0.291 -3.925,1.02 -5.886,1.547 0.053,0.879 0.106,1.757 0.158,2.636 h 13.997 c 0.082,0.492 0.163,0.985 0.245,1.478 -1.773,1.005 -3.545,2.009 -6.091,3.453 3.474,3.099 6.251,7.445 9.968,8.509 8.158,2.334 16.749,3.502 25.242,4.213 C -15.883,1.641 -7.78,1.115 0.28,1.115 0.186,0.743 0.093,0.372 0,0"
       style="fill:#008fc2;fill-opacity:1;fill-rule:nonzero;stroke:none"
       transform="matrix(1.3333333,0,0,-1.3333333,358.17893,195.8288)"
       clip-path="url(#clipPath130)" /><path
       id="path131"
       d="M 0,0 C -2.225,-1.407 -4.45,-2.813 -8.368,-5.29 -9.434,10.168 -5.297,21.356 7.162,29.883 8.926,18.616 1.817,9.681 -0.311,-0.311 -0.305,-0.304 0,0 0,0"
       style="fill:#008fc2;fill-opacity:1;fill-rule:nonzero;stroke:none"
       transform="matrix(1.3333333,0,0,-1.3333333,560.90067,656.3364)"
       clip-path="url(#clipPath132)" /><path
       id="path133"
       d="M 0,0 C 2.275,0.61 4.549,1.219 6.824,1.829 7.05,0.875 7.276,-0.078 7.502,-1.032 3.833,-1.302 0.146,-1.859 -3.487,-1.615 -4.265,-1.563 -5.806,2.445 -5.37,2.841 -1.884,6.003 1.992,8.736 6.879,9.978 4.252,7.118 1.624,4.257 -1.003,1.397 -0.669,0.931 -0.334,0.466 0,0"
       style="fill:#008fc2;fill-opacity:1;fill-rule:nonzero;stroke:none"
       transform="matrix(1.3333333,0,0,-1.3333333,235.9428,221.47253)"
       clip-path="url(#clipPath134)" /><path
       id="path135"
       d="M 0,0 C 5.436,4.605 10.054,8.781 15.782,0 Z"
       style="fill:#008fc2;fill-opacity:1;fill-rule:nonzero;stroke:none"
       transform="matrix(1.3333333,0,0,-1.3333333,191.22907,498.81827)"
       clip-path="url(#clipPath136)" /></g></svg>
