<?xml version="1.0" encoding="UTF-8" standalone="no"?>
<svg
   viewBox="66.993 897.484 113.652 26"
   version="1.1"
   id="svg5"
   sodipodi:docname="rustdesk-banner.svg"
   inkscape:version="1.4 (86a8ad7, 2024-10-11)"
   xmlns:inkscape="http://www.inkscape.org/namespaces/inkscape"
   xmlns:sodipodi="http://sodipodi.sourceforge.net/DTD/sodipodi-0.dtd"
   xmlns:xlink="http://www.w3.org/1999/xlink"
   xmlns="http://www.w3.org/2000/svg"
   xmlns:svg="http://www.w3.org/2000/svg">
  <sodipodi:namedview
     id="namedview5"
     pagecolor="#ffffff"
     bordercolor="#000000"
     borderopacity="0.25"
     inkscape:showpageshadow="2"
     inkscape:pageopacity="0.0"
     inkscape:pagecheckerboard="0"
     inkscape:deskcolor="#d1d1d1"
     inkscape:zoom="5.4439731"
     inkscape:cx="13.409324"
     inkscape:cy="23.420395"
     inkscape:window-width="1920"
     inkscape:window-height="1009"
     inkscape:window-x="-8"
     inkscape:window-y="-8"
     inkscape:window-maximized="1"
     inkscape:current-layer="svg5" />
  <defs
     id="defs2">
    <linearGradient
       id="a"
       x1=".148"
       x2=".845"
       y1=".851"
       y2=".154"
       gradientTransform="matrix(26.301 0 0 26.331 90.674 911.757)"
       gradientUnits="userSpaceOnUse">
      <stop
         offset="0"
         stop-color="#004ba6"
         style="stop-color:#024eff;stop-opacity:1"
         id="stop1" />
      <stop
         offset="1"
         stop-color="#00bfe1"
         style="stop-color:#01aee6;stop-opacity:1"
         id="stop2" />
    </linearGradient>
    <linearGradient
       xlink:href="#a"
       id="c"
       x1=".148"
       x2=".845"
       y1=".851"
       y2=".154"
       gradientTransform="matrix(26.00048 0 0 25.99935 66.993 897.485)"
       gradientUnits="userSpaceOnUse" />
    <clipPath
       clipPathUnits="userSpaceOnUse"
       id="clipPath2">
      <path
         d="M 0,1024 H 1024 V 0 H 0 Z"
         transform="translate(-143.42181,-649.88631)"
         id="path2-4" />
    </clipPath>
    <clipPath
       clipPathUnits="userSpaceOnUse"
       id="clipPath14">
      <path
         d="M 0,1024 H 1024 V 0 H 0 Z"
         transform="translate(-411.63171,-628.84701)"
         id="path14" />
    </clipPath>
    <clipPath
       clipPathUnits="userSpaceOnUse"
       id="clipPath20">
      <path
         d="M 0,1024 H 1024 V 0 H 0 Z"
         transform="translate(-147.6202,-845.93292)"
         id="path20" />
    </clipPath>
    <clipPath
       clipPathUnits="userSpaceOnUse"
       id="clipPath130">
      <path
         d="M 0,1024 H 1024 V 0 H 0 Z"
         transform="translate(-268.6342,-877.12842)"
         id="path130" />
    </clipPath>
    <clipPath
       clipPathUnits="userSpaceOnUse"
       id="clipPath132">
      <path
         d="M 0,1024 H 1024 V 0 H 0 Z"
         transform="translate(-420.67551,-531.74771)"
         id="path132" />
    </clipPath>
    <clipPath
       clipPathUnits="userSpaceOnUse"
       id="clipPath134">
      <path
         d="M 0,1024 H 1024 V 0 H 0 Z"
         transform="translate(-176.9571,-857.89562)"
         id="path134" />
    </clipPath>
    <clipPath
       clipPathUnits="userSpaceOnUse"
       id="clipPath136">
      <path
         d="M 0,1024 H 1024 V 0 H 0 Z"
         transform="translate(-143.42181,-649.88631)"
         id="path136" />
    </clipPath>
  </defs>
  <linearGradient
     id="b"
     x1=".148"
     x2=".845"
     y1=".851"
     y2=".154"
     gradientTransform="matrix(26.301 0 0 26.331 90.674 911.757)"
     gradientUnits="userSpaceOnUse">
    <stop
       offset="0"
       stop-color="#004ba6"
       style="stop-color:#0071ff;stop-opacity:1"
       id="stop3" />
    <stop
       offset="1"
       stop-color="#00bfe1"
       style="stop-color:#00bfe1;stop-opacity:1"
       id="stop4" />
  </linearGradient>
  <g
     id="g153"
     transform="matrix(0.04578936,0,0,0.04433795,64.423827,889.91275)"
     style="clip-rule:evenodd;isolation:isolate;fill:#008fc2;fill-opacity:1;fill-rule:evenodd;stroke-linejoin:round;stroke-miterlimit:1.41421">
    <path
       id="path1-8"
       d="M 0,0 H 15.782 C 10.054,8.781 5.436,4.605 0,0 m 190.354,153.821 c 3.64,-1.103 6.825,-2.069 10.924,-3.313 -1.986,4.946 -3.364,8.378 -5.117,12.743 -2.083,-3.383 -3.661,-5.945 -5.807,-9.43 M 33.535,208.009 c -0.334,0.466 -0.669,0.932 -1.003,1.397 2.627,2.861 5.255,5.721 7.882,8.581 -4.887,-1.242 -8.763,-3.974 -12.249,-7.137 -0.435,-0.395 1.105,-4.404 1.883,-4.456 3.634,-0.244 7.321,0.313 10.989,0.583 -0.226,0.954 -0.452,1.908 -0.678,2.861 -2.275,-0.609 -4.549,-1.219 -6.824,-1.829 M 60.603,96.427 c 6.404,0 10.217,-0.251 13.97,0.113 1.701,0.165 3.559,1.268 4.809,2.494 0.652,0.639 0.586,2.7 0.063,3.715 -1.438,2.787 -3.289,5.361 -5.628,9.045 -3.721,-4.326 -8.239,-9.581 -13.214,-15.367 m 64.609,130.815 c 0.094,0.372 0.187,0.743 0.28,1.115 -8.059,0 -16.162,0.526 -24.166,-0.144 -8.492,-0.711 -17.084,-1.879 -25.242,-4.213 -3.716,-1.064 -6.494,-5.41 -9.968,-8.509 2.546,-1.443 4.319,-2.448 6.091,-3.453 -0.081,-0.493 -0.163,-0.985 -0.244,-1.478 H 57.966 c -0.053,-0.879 -0.106,-1.757 -0.158,-2.636 1.96,-0.527 3.891,-1.256 5.886,-1.547 8.311,-1.21 14.905,2.728 22.19,6.163 12.615,5.949 26.169,9.908 39.328,14.702 m 152.042,-345.381 c -11.268,-11.817 -21.29,-25.232 -34.029,-35.162 -44.019,-34.315 -94.585,-49.262 -150.267,-45.65 -13.223,0.857 -26.279,4.285 -40.386,6.697 1.293,2.983 2.056,4.742 2.985,6.884 -0.96,0.448 -1.858,1.077 -2.846,1.293 -5.821,1.273 -4.765,5.056 -3.268,8.917 1.175,3.029 2.539,5.985 4.427,10.395 7.608,-0.094 3.356,7.774 4.95,13.498 6.609,0.443 10.936,3.76 10.282,11.456 -0.072,0.846 0.385,2.277 1.001,2.562 8.955,4.133 8.761,11.722 7.423,20.637 14.08,2.031 19.864,10.859 19.713,24.725 -0.027,2.544 3.033,5.133 4.698,7.682 7.112,10.894 4.676,17.158 -7.433,21.075 -6.704,2.168 -12.95,5.719 -19.535,8.309 -2.595,1.021 -5.55,1.126 -8.642,1.704 1.161,10.455 -3.172,15.716 -14.973,17.196 -2.285,0.286 -4.735,1.266 -6.587,2.633 -6.198,4.577 -11.786,10.115 -18.38,13.958 -2.972,1.731 -7.911,0.987 -11.706,0.182 -4.975,-1.055 -9.793,-3.064 -14.512,-5.058 -5.958,-2.518 -7.429,-7.214 -6.206,-13.401 0.366,-1.849 -0.677,-4.31 -1.766,-6.061 -6.624,-10.655 -4.744,-16.244 1.363,-26.811 6.339,-10.969 14.835,-18.95 23.852,-27.196 3.374,-3.086 4.317,-9.365 5.298,-14.396 1.28,-6.562 0.937,-13.446 2.275,-19.991 3.72,-18.191 7.948,-36.279 11.789,-53.571 -92.245,32.313 -144.598,139.485 -133.247,217.194 3.206,-6.968 6.291,-13.671 9.376,-20.375 0.784,0.268 1.568,0.536 2.352,0.804 -1.338,7.495 -2.676,14.99 -4.013,22.486 0.494,0.418 0.989,0.836 1.484,1.254 3.319,-5.007 8.4,-9.63 9.595,-15.101 2.582,-11.824 10.033,-18.959 19.249,-25.203 0.912,-0.618 1.87,-1.686 2.8,-1.679 8.549,0.063 15.332,-4.02 22.85,-7.449 5.238,-2.389 8.2,-5.354 11.395,-9.204 6.372,-7.678 9.654,-7.939 15.411,-1.375 -10.4,2.748 -10.4,2.748 -11.934,15.083 -10.078,1.96 -10.078,1.96 -9.803,20.081 -3.568,-2.167 -6.087,-3.793 -8.697,-5.256 -2.856,-1.601 -5.915,-4.427 -8.666,-4.188 -2.867,0.249 -6.597,2.926 -7.989,5.572 -5.107,9.706 -0.697,23.526 8.572,27.348 2.618,1.079 6.106,0.033 9.195,-0.012 1.917,-0.028 4.185,-0.682 5.693,0.102 8.465,4.404 14.384,1.939 17.064,-7.054 1.045,-3.508 3.054,-6.729 5.128,-11.156 1.564,2.341 2.192,2.881 2.094,3.19 -5.961,18.683 -5.832,18.518 9.558,31.183 3.091,2.544 4.68,6.887 7.047,10.342 2.005,2.928 3.803,6.099 6.274,8.585 5.129,5.161 10.492,10.12 16.074,14.786 2.275,1.902 3.718,6.929 9.027,1.392 1.871,-1.95 11.411,3.455 17.45,5.501 -0.277,1.059 -0.554,2.118 -0.83,3.177 -4.197,-0.798 -8.393,-1.596 -13.792,-2.623 1.847,4.36 3.175,7.494 5.224,12.33 -5.295,-1.275 -9.121,-2.196 -12.789,-3.079 4.947,7.229 11.005,8.802 18.275,4.83 6.915,3.847 13.662,7.6 19.531,10.865 -3.74,8.954 -7.23,17.31 -10.439,24.994 -0.501,-1.16 -1.615,-3.741 -2.456,-5.689 -4.513,6.601 -8.131,13.073 -13.022,18.37 -1.596,1.729 -7.954,1.846 -9.629,0.18 -4.655,-4.627 -8.76,-10.17 -7.175,-17.855 0.281,-1.363 -1.716,-4.069 -3.288,-4.79 -7.002,-3.213 -13.077,-6.771 -13.705,-15.678 -0.124,-1.755 -2.571,-3.346 -4.555,-5.75 -0.865,6.362 -1.586,11.663 -2.262,16.635 -7.317,4.484 -14.66,8.984 -22.749,13.941 11.736,14.722 27.31,21.66 42.099,29.727 0.555,-0.614 1.11,-1.227 1.665,-1.84 -2.665,-1.441 -5.33,-2.882 -7.995,-4.323 0.443,-0.526 0.886,-1.052 1.329,-1.578 h 15.845 c -7.995,4.441 -8.281,7.478 -1.715,11.379 3.891,2.311 6.744,6.497 9.783,10.078 3.672,4.327 9.796,4.535 14.298,0.355 1.171,-1.088 2.78,-1.704 6.138,-3.689 -4.901,-4.644 -9.175,-8.695 -14.476,-13.718 1.436,-3.707 3.745,-9.665 5.936,-15.319 6.305,2.585 10.662,4.617 15.183,6.174 8.941,3.079 0.177,8.073 1.3,13.327 4.449,-7.382 8.613,-6.209 15.398,1.475 -2.777,1.472 -5.703,2.652 -8.156,4.469 -1.377,1.021 -2.538,3.01 -2.801,4.716 -0.536,3.483 1.027,8.735 -0.805,10.303 -5.62,4.81 -10.764,11.128 -19.812,10.249 -7.26,-0.706 -15.185,1.898 -20.637,-5.389 -0.594,-0.793 -0.804,-1.874 -2.038,-4.89 5.021,2.119 8.306,3.506 13.208,5.575 -5.969,-7.515 -10.856,-13.665 -16.129,-20.302 -6.119,12.733 -6.119,12.733 1.73,23.717 -0.554,0.537 -1.108,1.073 -1.662,1.609 -2.743,-2.835 -6.005,-5.337 -8.091,-8.592 -2.342,-3.654 -3.621,-7.989 -5.363,-12.027 -0.822,0.208 -1.645,0.417 -2.467,0.625 0.307,5.755 0.614,11.51 0.954,17.882 -3.474,-0.58 -6.65,-1.109 -9.826,-1.639 0.434,1.065 0.869,2.129 1.65,4.045 -6.31,-0.83 -11.595,-1.526 -16.88,-2.221 l 0.292,-0.234 c 11.4,12.409 26.16,19.475 41.565,25.007 34.398,12.352 70.195,15.692 106.366,13.367 18.222,-1.171 35.879,-6.4 53.885,-15.558 -11.227,-0.799 -21.086,-3.318 -30.265,-1.779 -19.964,3.347 -38.249,-2.893 -56.953,-7.118 -3.906,-0.883 -7.622,-3.268 -10.962,-5.619 -1.147,-0.808 -1.344,-5.247 -1.188,-5.292 4.848,-1.394 6.66,-8.241 13.534,-6.606 4.554,1.083 12.074,3.165 10.558,-6.941 -0.089,-0.589 2.999,-1.655 4.538,-2.462 -0.344,-5.385 -5.695,-9.389 -3.15,-15.301 0.433,-1.006 -1.345,-3.765 -2.762,-4.622 -5.372,-3.251 -5.018,-7.088 -2.519,-12.033 1.671,-3.305 1.822,-7.394 3.566,-10.642 1.946,-3.622 4.797,-9.264 7.485,-9.398 4.084,-0.204 9.982,2.515 12.22,5.901 4.281,6.478 11.516,8.693 16.182,13.484 10.551,10.834 23.681,8.011 35.932,10.136 2.2,0.382 4.484,0.264 6.693,0.608 13.516,2.106 13.657,2.337 13.9,16.036 0.132,7.471 3.085,11.934 11.497,11.892 6.934,-0.035 13.875,1.356 20.811,1.331 2.404,-0.009 5.124,-1.991 7.148,-3.719 21.295,-18.173 38.587,-39.582 51.494,-64.47 0.475,-0.916 0.657,-1.983 1.585,-4.885 -45.79,0 -90.61,-0.772 -135.39,0.216 -44.984,0.993 -80.858,-32.667 -90.96,-69.495 -16.155,-58.895 32.223,-102.7 75.667,-101.11 8.364,0.306 16.719,0.982 25.064,1.668 6.012,0.495 11.101,-3.382 10.901,-9.54 -0.194,-5.946 1.496,-10.427 5.198,-15.242 4.814,-6.263 7.061,-13.8 3.458,-22.005 -1.183,-2.694 -2.226,-6.289 -1.42,-8.875 4.033,-12.924 8.823,-25.61 13.1,-38.462 2.365,-7.107 6.758,-8.657 12.726,-4.815 8.145,5.243 18.702,8.32 19.799,20.573 0.096,1.074 2.753,1.712 3.633,2.965 1.648,2.348 4.536,5.494 3.961,7.434 -1.993,6.717 1.718,9.466 6.595,11.525 7.528,3.178 8.843,8.735 6.57,15.744 -3.639,11.22 -2.761,20.067 8.979,26.874 9.139,5.299 16.077,13.626 17.779,26.312 -12.267,-3.271 -19.608,1.643 -23.017,12.857 l -0.215,-0.097 c 6.481,-8.507 14.966,-6.466 23.882,-5.41 9.031,1.069 18.287,0.236 28.088,0.236 -5.354,-31.613 -18.04,-59.023 -36.027,-84.159 -2.047,-2.86 -4.646,-5.325 -6.995,-7.98 2.128,9.991 9.237,18.927 7.473,30.193 -12.459,-8.526 -16.597,-19.715 -15.531,-35.173 3.918,2.477 6.144,3.884 8.369,5.29"
       style="fill:#008fc2;fill-opacity:1;fill-rule:nonzero;stroke:none"
       transform="matrix(1.3333333,0,0,-1.3333333,191.22907,498.81827)"
       clip-path="url(#clipPath2)" />
    <path
       id="path13"
       d="m 0,0 c -3.171,0.635 -6.341,1.815 -9.514,1.824 -45.121,0.124 -90.243,0.09 -135.365,0.094 -2.739,0.001 -5.479,0 -8.807,0 V 66.993 H 58.062 C 57.015,45.606 55.971,24.303 54.897,2.38 42.161,2.38 30.764,2.662 19.391,2.272 12.844,2.047 6.335,0.735 -0.203,-0.093 -0.214,-0.097 0,0 0,0"
       style="fill:#008fc2;fill-opacity:1;fill-rule:nonzero;stroke:none"
       transform="matrix(1.3333333,0,0,-1.3333333,548.84227,526.87067)"
       clip-path="url(#clipPath14)" />
    <path
       id="path19"
       d="m 0,0 c -1.495,-1.101 -2.99,-2.202 -5.339,-3.933 2.331,-0.796 3.943,-1.345 5.8,-1.979 -0.775,-1.611 -1.537,-3.196 -2.899,-6.028 4.647,0.266 8.242,0.472 12.148,0.696 -4.386,-5.156 -21.78,-6.38 -40.238,-2.555 7.561,6.846 14.149,12.809 20.736,18.772 0,0.001 -0.291,0.234 -0.291,0.234 C -10.897,-4.613 -3.078,2.284 0,0"
       style="fill:#008fc2;fill-opacity:1;fill-rule:nonzero;stroke:none"
       transform="matrix(1.3333333,0,0,-1.3333333,196.82693,237.4228)"
       clip-path="url(#clipPath20)" />
    <path
       id="path129"
       d="m 0,0 c -13.16,-4.794 -26.713,-8.753 -39.328,-14.702 -7.286,-3.435 -13.879,-7.373 -22.191,-6.163 -1.995,0.291 -3.925,1.02 -5.886,1.547 0.053,0.879 0.106,1.757 0.158,2.636 h 13.997 c 0.082,0.492 0.163,0.985 0.245,1.478 -1.773,1.005 -3.545,2.009 -6.091,3.453 3.474,3.099 6.251,7.445 9.968,8.509 8.158,2.334 16.749,3.502 25.242,4.213 C -15.883,1.641 -7.78,1.115 0.28,1.115 0.186,0.743 0.093,0.372 0,0"
       style="fill:#008fc2;fill-opacity:1;fill-rule:nonzero;stroke:none"
       transform="matrix(1.3333333,0,0,-1.3333333,358.17893,195.8288)"
       clip-path="url(#clipPath130)" />
    <path
       id="path131"
       d="M 0,0 C -2.225,-1.407 -4.45,-2.813 -8.368,-5.29 -9.434,10.168 -5.297,21.356 7.162,29.883 8.926,18.616 1.817,9.681 -0.311,-0.311 -0.305,-0.304 0,0 0,0"
       style="fill:#008fc2;fill-opacity:1;fill-rule:nonzero;stroke:none"
       transform="matrix(1.3333333,0,0,-1.3333333,560.90067,656.3364)"
       clip-path="url(#clipPath132)" />
    <path
       id="path133"
       d="M 0,0 C 2.275,0.61 4.549,1.219 6.824,1.829 7.05,0.875 7.276,-0.078 7.502,-1.032 3.833,-1.302 0.146,-1.859 -3.487,-1.615 -4.265,-1.563 -5.806,2.445 -5.37,2.841 -1.884,6.003 1.992,8.736 6.879,9.978 4.252,7.118 1.624,4.257 -1.003,1.397 -0.669,0.931 -0.334,0.466 0,0"
       style="fill:#008fc2;fill-opacity:1;fill-rule:nonzero;stroke:none"
       transform="matrix(1.3333333,0,0,-1.3333333,235.9428,221.47253)"
       clip-path="url(#clipPath134)" />
    <path
       id="path135"
       d="M 0,0 C 5.436,4.605 10.054,8.781 15.782,0 Z"
       style="fill:#008fc2;fill-opacity:1;fill-rule:nonzero;stroke:none"
       transform="matrix(1.3333333,0,0,-1.3333333,191.22907,498.81827)"
       clip-path="url(#clipPath136)" />
  </g>
  <path
     style="font-size:44.4603px;font-family:'BPG Banner Caps';-inkscape-font-specification:'BPG Banner Caps';clip-rule:evenodd;fill:#000000;fill-rule:evenodd;stroke-width:1.48339;stroke-linejoin:round;stroke-miterlimit:1.41421"
     d="m 99.783912,908.43769 c 0,-0.83441 0.0811,-1.53554 0.243368,-2.10341 0.16224,-0.57366 0.42879,-1.03432 0.79964,-1.38198 0.37085,-0.35347 0.85469,-0.60843 1.45153,-0.76489 0.60263,-0.15644 1.33854,-0.23467 2.20771,-0.23467 h 1.59059 c 1.61088,0 2.79586,0.27813 3.55494,0.83441 0.76487,0.55628 1.14732,1.41966 1.14732,2.59014 v 0.70404 h -1.77313 v -0.32159 c 0,-0.41721 -0.0464,-0.76198 -0.13907,-1.03433 -0.087,-0.27813 -0.24337,-0.49832 -0.46935,-0.66057 -0.22599,-0.16804 -0.5331,-0.28683 -0.92133,-0.35636 -0.38823,-0.0696 -0.88077,-0.1043 -1.4776,-0.1043 h -1.11254 c -0.44619,0 -0.81703,0.0115 -1.11256,0.0347 -0.28973,0.0174 -0.5331,0.0492 -0.7301,0.0956 -0.19702,0.0406 -0.36216,0.0985 -0.49544,0.17383 -0.12748,0.0753 -0.25206,0.16804 -0.37374,0.27814 -0.11009,0.0985 -0.20571,0.2086 -0.28683,0.33029 -0.0753,0.11589 -0.13617,0.25785 -0.18253,0.4259 v -0.009 c -0.0406,0.16803 -0.0725,0.40561 -0.0956,0.71272 -0.0232,0.30711 -0.0348,0.68664 -0.0348,1.13862 v 3.58101 c 0,0.45197 0.0115,0.82861 0.0348,1.12993 0.0232,0.30132 0.055,0.53599 0.0956,0.70403 v -0.009 c 0.1043,0.35347 0.27524,0.62291 0.51282,0.80834 0.24336,0.18542 0.52151,0.31869 0.8344,0.39982 0.33029,0.0927 0.94161,0.13906 1.83398,0.13906 h 1.11254 c 0.39982,0 0.73011,-0.009 0.99086,-0.0261 0.26655,-0.0174 0.48964,-0.0435 0.66926,-0.0782 0.17963,-0.0406 0.32739,-0.0927 0.44328,-0.15646 0.12169,-0.0695 0.23758,-0.15644 0.34767,-0.26075 0.1043,-0.0985 0.19123,-0.2028 0.26076,-0.3129 0.0753,-0.11009 0.13327,-0.25206 0.17383,-0.4259 0.0464,-0.17383 0.0782,-0.38823 0.0956,-0.64318 0.0174,-0.26076 0.0261,-0.58815 0.0261,-0.98217 v -0.60843 h -3.49409 v -1.61668 h 5.2672 v 2.27725 c 0,0.83441 -0.0811,1.53845 -0.24337,2.11211 -0.15644,0.56786 -0.42009,1.02852 -0.79094,1.38198 -0.36506,0.34768 -0.8489,0.59974 -1.45153,0.75619 -0.59683,0.15646 -1.33564,0.23468 -2.2164,0.23468 h -1.5906 c -0.88076,0 -1.62246,-0.0782 -2.22509,-0.23468 -0.59683,-0.15645 -1.08067,-0.40851 -1.45152,-0.75619 -0.36506,-0.35346 -0.62871,-0.81412 -0.79096,-1.38198 -0.156449,-0.57366 -0.234671,-1.2777 -0.234671,-2.11211 z m 13.593928,8.59617 v -12.92467 h 2.57277 l 4.19812,10.90818 c 0.69534,-1.82528 1.38779,-3.64475 2.07734,-5.45843 0.68954,-1.81369 1.38199,-3.63027 2.07733,-5.44975 h 2.59016 v 12.92467 h -1.72098 v -10.65612 c -0.68376,1.79052 -1.36172,3.56943 -2.03388,5.33675 -0.67216,1.76154 -1.34722,3.53465 -2.02518,5.31937 h -1.95565 l -4.05906,-10.64742 v 10.64742 z m 18.36572,-1.58191 h 4.29374 c 0.59683,0 1.08068,-0.0435 1.45152,-0.13037 0.37665,-0.087 0.66928,-0.23468 0.87788,-0.44328 0.21439,-0.2144 0.35925,-0.50123 0.43458,-0.86048 0.0811,-0.35927 0.12169,-0.81414 0.12169,-1.36462 v -4.06775 c 0,-0.59683 -0.0492,-1.08357 -0.14776,-1.46021 -0.0985,-0.38244 -0.24048,-0.66927 -0.4259,-0.86048 -0.37664,-0.38245 -1.14731,-0.57366 -2.31201,-0.57366 h -4.29374 z m -1.72966,1.58191 v -12.92467 h 6.24938 c 0.81703,0 1.50658,0.0782 2.06865,0.23468 0.56786,0.15645 1.02852,0.40851 1.38199,0.75619 0.35346,0.34187 0.60842,0.79094 0.76487,1.34722 0.15646,0.55628 0.23469,1.23422 0.23469,2.03387 v 4.15467 c 0,0.79964 -0.0811,1.4805 -0.24337,2.04256 -0.15646,0.55628 -0.41141,1.01115 -0.76488,1.36462 -0.34768,0.34767 -0.80544,0.59973 -1.3733,0.75618 -0.56207,0.15646 -1.25162,0.23468 -2.06865,0.23468 z m 13.33318,0 v -12.92467 h 9.16983 v 1.66882 h -7.44886 v 3.78093 h 7.24025 v 1.62535 h -7.24025 v 4.18944 h 7.44886 v 1.66013 z m 11.03855,-4.4415 h 1.73836 v 0.40851 c 0,0.50992 0.0232,0.91844 0.0696,1.22554 0.0464,0.30711 0.12458,0.54759 0.23468,0.72142 0.11589,0.17384 0.26945,0.29842 0.46066,0.37375 0.19702,0.0753 0.44618,0.13037 0.7475,0.16514 0.22019,0.029 0.54468,0.0492 0.97347,0.0608 0.43459,0.005 0.97638,0.009 1.62537,0.009 0.68375,0 1.21394,-0.0435 1.59059,-0.13038 0.37665,-0.087 0.65188,-0.22599 0.82572,-0.4172 0.0927,-0.0985 0.15935,-0.27235 0.19991,-0.52151 0.0464,-0.24917 0.0695,-0.59394 0.0695,-1.03432 0,-0.44039 -0.0174,-0.78806 -0.0521,-1.04301 -0.0347,-0.26076 -0.0985,-0.46067 -0.19122,-0.59974 -0.087,-0.13907 -0.21149,-0.23178 -0.37374,-0.27813 -0.16224,-0.0464 -0.37375,-0.0782 -0.6345,-0.0956 l -3.87653,-0.30421 c -0.60843,-0.0463 -1.11834,-0.14196 -1.52976,-0.28682 -0.41141,-0.14487 -0.74459,-0.35347 -0.99955,-0.62581 -0.24916,-0.27814 -0.42879,-0.6287 -0.53889,-1.05171 -0.11009,-0.42879 -0.16515,-0.9474 -0.16515,-1.55583 0,-1.02562 0.16805,-1.82816 0.50413,-2.40762 0.33608,-0.58524 0.87787,-0.95319 1.62536,-1.10385 0.23179,-0.0464 0.54758,-0.0811 0.94741,-0.1043 0.40561,-0.029 0.90684,-0.0435 1.50367,-0.0435 h 0.45197 c 0.67796,0 1.24004,0.0145 1.68621,0.0435 0.45197,0.029 0.82861,0.0782 1.12994,0.14776 0.30131,0.0696 0.55047,0.15935 0.74748,0.26945 0.20281,0.11008 0.39982,0.24626 0.59104,0.40851 0.25496,0.22019 0.44618,0.5302 0.57366,0.93002 0.13327,0.39982 0.19991,0.88946 0.19991,1.46891 0,0.16225 -0.003,0.3158 -0.009,0.46066 -0.005,0.13907 -0.0115,0.24337 -0.0174,0.31291 h -1.72967 v -0.47805 c 0,-0.39403 -0.0174,-0.70404 -0.0521,-0.93002 -0.0348,-0.22598 -0.0956,-0.39693 -0.18253,-0.51282 -0.087,-0.12168 -0.20571,-0.20281 -0.35637,-0.24337 -0.14486,-0.0463 -0.32739,-0.087 -0.54758,-0.12169 -0.44618,-0.0695 -1.28638,-0.10429 -2.52061,-0.10429 -1.269,0 -2.04547,0.13037 -2.3294,0.39112 -0.15066,0.13328 -0.26365,0.33899 -0.33898,0.61712 -0.0695,0.27814 -0.1043,0.61712 -0.1043,1.01694 0,0.34767 0.0232,0.63739 0.0696,0.86918 0.0521,0.22598 0.12458,0.40271 0.21729,0.5302 v -0.009 c 0.0985,0.11589 0.24047,0.2115 0.4259,0.28683 0.18542,0.0696 0.4259,0.11299 0.72142,0.13037 l 3.95476,0.33029 c 0.55047,0.0464 1.01403,0.14487 1.39068,0.29553 0.37664,0.14486 0.68085,0.35635 0.91263,0.6345 0.23179,0.27234 0.39693,0.61711 0.49543,1.03431 0.10431,0.41142 0.15646,0.90395 0.15646,1.47761 0,0.43459 -0.0145,0.80833 -0.0435,1.12123 -0.029,0.30711 -0.0725,0.57656 -0.13036,0.80835 -0.058,0.22598 -0.13328,0.42299 -0.22599,0.59103 -0.0927,0.16805 -0.20281,0.33029 -0.33029,0.48674 -0.17384,0.19122 -0.35637,0.35057 -0.54758,0.47805 -0.19122,0.12169 -0.43749,0.22019 -0.7388,0.29552 -0.30131,0.0753 -0.68376,0.12748 -1.14732,0.15645 -0.45777,0.0348 -1.04011,0.0521 -1.74705,0.0521 h -0.6258 c -0.59684,0 -1.09806,-0.0145 -1.50368,-0.0435 -0.39982,-0.0232 -0.7417,-0.0666 -1.02562,-0.13038 -0.27814,-0.0637 -0.51572,-0.14776 -0.71273,-0.25206 -0.19122,-0.11009 -0.37375,-0.24627 -0.54759,-0.40851 h 0.009 c -0.33607,-0.28394 -0.58234,-0.66347 -0.73879,-1.13862 -0.15646,-0.48096 -0.23468,-1.09517 -0.23468,-1.84266 z m 13.04635,4.4415 v -12.92467 h 1.72967 v 5.32806 h 0.83441 c 0.86338,-0.89236 1.71518,-1.77891 2.55538,-2.65968 0.84601,-0.88657 1.69779,-1.77603 2.55538,-2.66838 h 2.29463 l -5.96256,6.17985 c 0.5389,0.5389 1.08937,1.09227 1.65144,1.66014 0.56786,0.56786 1.13863,1.13861 1.71228,1.71227 0.57366,0.57366 1.14152,1.14442 1.70359,1.71228 0.56786,0.56786 1.11834,1.12123 1.65144,1.66013 h -2.38155 l -5.78003,-5.90171 h -0.83441 v 5.90171 z"
     id="text4"
     aria-label="GMDESK"
     sodipodi:nodetypes="scccsscsccsccssscccccccssssccccsscccccccsccccscccsscccssccccsccccccccccccscscssccsccccsccssscscsccccccccccccccccssccccssccsccsccsccscccsscscccscccsscccsccscccccccccsccsccscssccccccscccccccccccsccccccc" />
</svg>
